<svg width="52" height="52" viewBox="0 0 52 52" fill="none" xmlns="http://www.w3.org/2000/svg">
<g filter="url(#filter0_d_27037_3068)">
<rect x="4" y="4" width="44" height="44" rx="8" fill="white"/>
<g clip-path="url(#clip0_27037_3068)">
<path d="M32.5464 26.7628C32.5704 24.8928 33.5504 23.1658 35.1434 22.1868C34.1344 20.7448 32.5034 19.8638 30.7444 19.8088C28.8934 19.6148 27.0994 20.9158 26.1564 20.9158C25.1954 20.9158 23.7434 19.8278 22.1794 19.8598C20.1224 19.9268 18.2504 21.0678 17.2494 22.8668C15.1184 26.5568 16.7074 31.9808 18.7494 34.9638C19.7714 36.4248 20.9644 38.0558 22.5274 37.9988C24.0564 37.9358 24.6274 37.0238 26.4724 37.0238C28.3004 37.0238 28.8364 37.9988 30.4304 37.9618C32.0704 37.9348 33.1044 36.4948 34.0904 35.0198C34.8244 33.9788 35.3894 32.8288 35.7634 31.6118C33.8154 30.7878 32.5484 28.8788 32.5464 26.7628Z" fill="#0E0E0E"/>
<path d="M29.5358 17.847C30.4298 16.773 30.8708 15.393 30.7638 14C29.3978 14.144 28.1348 14.797 27.2288 15.829C26.3338 16.848 25.8798 18.18 25.9678 19.534C27.3528 19.548 28.6678 18.926 29.5358 17.847Z" fill="#0E0E0E"/>
</g>
</g>
<defs>
<filter id="filter0_d_27037_3068" x="0" y="0" width="52" height="52" filterUnits="userSpaceOnUse" color-interpolation-filters="sRGB">
<feFlood flood-opacity="0" result="BackgroundImageFix"/>
<feColorMatrix in="SourceAlpha" type="matrix" values="0 0 0 0 0 0 0 0 0 0 0 0 0 0 0 0 0 0 127 0" result="hardAlpha"/>
<feOffset/>
<feGaussianBlur stdDeviation="2"/>
<feComposite in2="hardAlpha" operator="out"/>
<feColorMatrix type="matrix" values="0 0 0 0 0 0 0 0 0 0 0 0 0 0 0 0 0 0 0.15 0"/>
<feBlend mode="normal" in2="BackgroundImageFix" result="effect1_dropShadow_27037_3068"/>
<feBlend mode="normal" in="SourceGraphic" in2="effect1_dropShadow_27037_3068" result="shape"/>
</filter>
<clipPath id="clip0_27037_3068">
<rect width="24" height="24" fill="white" transform="translate(14 14)"/>
</clipPath>
</defs>
</svg>
