<svg width="175" height="139" viewBox="0 0 175 139" fill="none" xmlns="http://www.w3.org/2000/svg">
<path d="M87.5 133.168C133.534 133.168 170.853 116.055 170.853 94.9454C170.853 73.8358 133.534 56.7231 87.5 56.7231C41.4657 56.7231 4.14752 73.8358 4.14752 94.9454C4.14752 116.055 41.4657 133.168 87.5 133.168Z" fill="#F0F0F0"/>
<path d="M37.1525 102.757C51.5842 102.757 63.2835 97.6116 63.2835 91.2645C63.2835 84.9173 51.5842 79.772 37.1525 79.772C22.7207 79.772 11.0215 84.9173 11.0215 91.2645C11.0215 97.6116 22.7207 102.757 37.1525 102.757Z" fill="#E0E0E0"/>
<path d="M21.175 110.227L62.125 129C62.3346 129.084 62.5659 129.127 62.8005 129.127C63.035 129.127 63.2664 129.084 63.476 129L135.891 95.7904C135.972 95.7681 136.042 95.7263 136.092 95.6707C136.142 95.6152 136.169 95.5487 136.169 95.4805C136.169 95.4123 136.142 95.3458 136.092 95.2902C136.042 95.2347 135.972 95.1928 135.891 95.1705L94.941 76.3972C94.732 76.3136 94.5012 76.27 94.2672 76.27C94.0332 76.27 93.8025 76.3136 93.5935 76.3972L21.175 109.607C21.0938 109.629 21.0235 109.671 20.9737 109.727C20.9239 109.782 20.8972 109.849 20.8972 109.917C20.8972 109.985 20.9239 110.052 20.9737 110.107C21.0235 110.163 21.0938 110.205 21.175 110.227Z" fill="#E0E0E0"/>
<path d="M134.656 119.609C146.994 119.609 156.996 115.023 156.996 109.365C156.996 103.707 146.994 99.1208 134.656 99.1208C122.317 99.1208 112.315 103.707 112.315 109.365C112.315 115.023 122.317 119.609 134.656 119.609Z" fill="#E0E0E0"/>
<path d="M39.6515 100.675C39.5749 100.675 39.4991 100.663 39.4284 100.64C39.3576 100.616 39.2934 100.582 39.2394 100.539C39.1854 100.496 39.1427 100.444 39.1137 100.388C39.0847 100.332 39.07 100.272 39.0705 100.211V70.5286C39.0705 70.4062 39.1317 70.2888 39.2407 70.2023C39.3496 70.1158 39.4974 70.0671 39.6515 70.0671C39.8056 70.0671 39.9534 70.1158 40.0623 70.2023C40.1713 70.2888 40.2325 70.4062 40.2325 70.5286V100.211C40.2325 100.333 40.1714 100.451 40.0626 100.538C39.9537 100.625 39.8059 100.674 39.6515 100.675Z" fill="#455A64"/>
<path d="M62.7725 89.8691C62.6578 89.8698 62.5453 89.8439 62.4489 89.7945C62.3525 89.7451 62.2764 89.6744 62.23 89.5911L50.771 66.5532C50.7143 66.4393 50.717 66.3122 50.7784 66.1999C50.8398 66.0875 50.9548 65.9991 51.0982 65.9541C51.2416 65.9092 51.4017 65.9113 51.5431 65.96C51.6846 66.0088 51.7958 66.1002 51.8525 66.2141L63.3115 89.238C63.3462 89.3079 63.359 89.3835 63.3486 89.4582C63.3382 89.5329 63.305 89.6045 63.2519 89.6667C63.1988 89.7289 63.1273 89.7798 63.0438 89.8151C62.9602 89.8504 62.8671 89.8689 62.7725 89.8691Z" fill="#455A64"/>
<path d="M61.3935 87.1031C61.3148 87.103 61.2369 87.0901 61.1647 87.0653C61.0925 87.0404 61.0274 87.0041 60.9735 86.9585L39.648 69.0359L18.3645 86.8807C18.313 86.9274 18.2501 86.9653 18.1797 86.9922C18.1093 87.0192 18.0328 87.0346 17.9547 87.0375C17.8766 87.0404 17.7986 87.0307 17.7253 87.0091C17.6521 86.9875 17.585 86.9544 17.5283 86.9117C17.4715 86.8691 17.4261 86.8177 17.3949 86.7608C17.3637 86.7039 17.3473 86.6426 17.3466 86.5805C17.3459 86.5184 17.361 86.4569 17.391 86.3995C17.4209 86.3422 17.4651 86.2903 17.521 86.2468L39.221 68.0462C39.2754 68.0004 39.3411 67.964 39.4139 67.9391C39.4867 67.9142 39.5652 67.9015 39.6445 67.9016C39.7232 67.9019 39.801 67.9148 39.8732 67.9397C39.9454 67.9645 40.0104 68.0007 40.0645 68.0462L61.81 86.3247C61.8624 86.3686 61.9033 86.4203 61.9305 86.4768C61.9576 86.5333 61.9704 86.5935 61.9681 86.654C61.9659 86.7144 61.9485 86.774 61.9172 86.8291C61.8858 86.8842 61.8411 86.9339 61.7855 86.9752C61.6803 87.0562 61.54 87.102 61.3935 87.1031Z" fill="#455A64"/>
<path d="M16.5305 89.8691C16.4573 89.869 16.3848 89.8577 16.317 89.8357C16.2457 89.8139 16.1806 89.7811 16.1254 89.7392C16.0702 89.6972 16.026 89.647 15.9954 89.5914C15.9648 89.5358 15.9484 89.476 15.9471 89.4153C15.9458 89.3546 15.9597 89.2944 15.988 89.238L27.447 66.2002C27.5036 66.0862 27.6149 65.9949 27.7563 65.9461C27.8978 65.8974 28.0578 65.8952 28.2012 65.9402C28.3446 65.9852 28.4597 66.0736 28.5211 66.1859C28.5824 66.2983 28.5851 66.4254 28.5285 66.5393L17.0695 89.5772C17.0267 89.6631 16.9525 89.7368 16.8564 89.7889C16.7603 89.8409 16.6468 89.8689 16.5305 89.8691Z" fill="#455A64"/>
<path d="M61.9815 86.3914L63.497 89.5661C63.5001 89.5929 63.5001 89.6199 63.497 89.6467V89.7051C63.4533 89.7911 63.3727 89.862 63.2695 89.9053C63.1263 89.9629 62.968 89.993 62.8075 89.993C62.6469 89.993 62.4887 89.9629 62.3455 89.9053C62.2657 89.8734 62.2025 89.8202 62.167 89.7552V89.7135L60.767 86.7361L61.9815 86.3914Z" fill="#FFC100"/>
<path d="M17.318 86.3914L15.8025 89.5661C15.7992 89.5929 15.7992 89.6199 15.8025 89.6467C15.799 89.6661 15.799 89.6858 15.8025 89.7051C15.8436 89.7923 15.9249 89.8639 16.03 89.9053C16.1726 89.9629 16.3303 89.9929 16.4902 89.9929C16.6502 89.9929 16.8079 89.9629 16.9505 89.9053C17.032 89.8753 17.096 89.8215 17.129 89.7552V89.7135L18.55 86.7361L17.318 86.3914Z" fill="#FFC100"/>
<path d="M40.32 97.9144V100.542C40.3128 100.588 40.2912 100.632 40.2569 100.67C40.2226 100.708 40.1769 100.738 40.124 100.758C39.977 100.817 39.8145 100.848 39.6497 100.848C39.485 100.848 39.3225 100.817 39.1755 100.758C39.1225 100.738 39.0768 100.708 39.0426 100.67C39.0083 100.632 38.9866 100.588 38.9795 100.542V97.9144C39.1857 97.8268 39.4159 97.781 39.6497 97.781C39.8836 97.781 40.1138 97.8268 40.32 97.9144Z" fill="#FFC100"/>
<path d="M61.53 67.6208C61.53 66.923 60.76 66.1835 59.136 65.3467C56.1365 63.801 49.4375 60.6986 45.241 58.8499C45.2395 58.8432 45.2352 58.8371 45.2289 58.8326C45.2225 58.8281 45.2145 58.8253 45.206 58.8248C41.9755 57.268 38.962 49.8538 36.729 44.2215C35.966 42.3005 35.035 41.2135 33.929 40.702C33.6665 40.5825 32.697 40.1599 32.48 40.0571C30.289 39.0118 27.4085 40.2656 23.8245 41.8251C20.5205 43.2596 17.941 45.0972 17.423 49.9761C17.1045 52.9451 17.4055 58.6191 18.165 62.9198C19.264 70.1061 20.615 70.1172 22.5715 71.3182C25.9455 73.392 33.5405 76.2944 36.75 77.284C42.553 79.0966 47.299 76.2999 50.834 74.9127C54.0749 73.6126 57.2037 72.1434 60.2 70.5147C61.0855 70.006 61.544 69.4889 61.5335 68.944C61.523 68.73 61.53 67.8459 61.53 67.6208Z" fill="#FFC100"/>
<path opacity="0.25" d="M61.53 67.6208C61.53 66.923 60.76 66.1835 59.136 65.3467C56.1365 63.801 49.4375 60.6986 45.241 58.8499C45.2395 58.8432 45.2352 58.8371 45.2289 58.8326C45.2225 58.8281 45.2145 58.8253 45.206 58.8248C41.9755 57.268 38.962 49.8538 36.729 44.2215C35.966 42.3005 35.035 41.2135 33.929 40.702C33.6665 40.5825 32.697 40.1599 32.48 40.0571C30.289 39.0118 27.4085 40.2656 23.8245 41.8251C20.5205 43.2596 17.941 45.0972 17.423 49.9761C17.1045 52.9451 17.4055 58.6191 18.165 62.9198C19.264 70.1061 20.615 70.1172 22.5715 71.3182C25.9455 73.392 33.5405 76.2944 36.75 77.284C42.553 79.0966 47.299 76.2999 50.834 74.9127C54.0749 73.6126 57.2037 72.1434 60.2 70.5147C61.0855 70.006 61.544 69.4889 61.5335 68.944C61.523 68.73 61.53 67.8459 61.53 67.6208Z" fill="black"/>
<path d="M33.7995 40.6436C31.626 39.7374 28.8015 40.9689 25.3085 42.4896C23.072 43.4653 21.1645 44.619 20.006 46.7791L18.55 46.1008C19.7085 43.9491 21.6125 42.7954 23.842 41.8251C27.4295 40.2656 30.3065 39.0118 32.501 40.0571L33.7995 40.6436Z" fill="#FFC100"/>
<path d="M59.15 65.3467C57.204 64.3431 57.162 64.0874 45.15 58.8026C45.1699 58.8064 45.1889 58.813 45.206 58.8221C41.979 57.2597 38.969 49.851 36.736 44.2215C34.4645 38.5003 30.681 40.1571 25.3155 42.4923C22.0045 43.924 19.425 45.7644 18.9 50.6433C18.375 55.5222 19.5125 67.6013 21.609 69.0747C23.8945 71.0819 33.068 74.8126 36.7325 75.958C42.5355 77.7705 47.2815 74.9739 50.8165 73.5866C54.0635 72.2843 57.1982 70.8123 60.2 69.1803C62.2055 68.0183 62.02 66.8312 59.15 65.3467Z" fill="#FFC100"/>
<g opacity="0.1">
<path d="M25.3085 42.4923C30.674 40.1571 34.4575 38.5003 36.729 44.2215C38.962 49.8538 41.979 57.268 45.206 58.8248C45.206 58.8248 39.6655 58.8248 31.64 62.2637C23.296 65.8416 22.022 69.3416 21.6405 69.0914C19.5405 67.7014 18.3855 55.5194 18.907 50.6433C19.4285 45.7672 22.0045 43.924 25.3085 42.4923Z" fill="black"/>
</g>
<path d="M62.839 91.2118L26.082 74.3567L87.4755 46.2175L124.229 63.0727L62.839 91.2118Z" fill="#455A64"/>
<path d="M26.082 74.3567V108.067L28.0175 108.954V85.8881L60.9035 100.97V124.035L62.839 124.922V91.2118L26.082 74.3567Z" fill="#263238"/>
<path d="M28.0175 108.954L29.953 108.067V86.775L28.0175 85.8882V108.954Z" fill="black"/>
<path d="M62.839 124.922L64.7745 124.035V100.97L122.297 74.607V97.6726L124.229 96.7858V63.0728L62.839 91.2119V124.922Z" fill="#37474F"/>
<path d="M122.297 97.6726L120.361 96.7858V75.4938L122.297 74.6069V97.6726Z" fill="#263238"/>
<g opacity="0.2">
<path d="M59.5 84.5621C57.6205 85.4211 57.6205 86.8166 59.5 87.6784C61.3795 88.5402 64.4 88.5375 66.2935 87.6784C68.187 86.8194 68.1695 85.4211 66.2935 84.5621C64.4175 83.703 61.383 83.7003 59.5 84.5621Z" fill="black"/>
</g>
<g opacity="0.2">
<path d="M32.361 74.3373L45.85 80.5284C45.9674 80.5764 46.0976 80.6015 46.2297 80.6015C46.3618 80.6015 46.492 80.5764 46.6095 80.5284L56.546 75.972C56.5917 75.9596 56.6314 75.9362 56.6595 75.9051C56.6876 75.8739 56.7027 75.8365 56.7027 75.7982C56.7027 75.7599 56.6876 75.7225 56.6595 75.6913C56.6314 75.6602 56.5917 75.6368 56.546 75.6245L43.05 69.4306C42.9319 69.3841 42.802 69.3599 42.6702 69.3599C42.5385 69.3599 42.4085 69.3841 42.2905 69.4306L32.354 73.9898C32.151 74.0843 32.151 74.24 32.361 74.3373Z" fill="black"/>
</g>
<g opacity="0.2">
<path d="M32.361 75.4438L45.85 81.6348C45.9674 81.6829 46.0976 81.7079 46.2297 81.7079C46.3618 81.7079 46.492 81.6829 46.6095 81.6348L56.546 77.0784C56.756 76.9811 56.756 76.8254 56.546 76.7309L43.05 70.5371C42.932 70.4905 42.802 70.4663 42.6702 70.4663C42.5385 70.4663 42.4085 70.4905 42.2905 70.5371L32.361 75.0935C32.3157 75.1065 32.2765 75.1303 32.2488 75.1616C32.2211 75.193 32.2063 75.2303 32.2063 75.2686C32.2063 75.3069 32.2211 75.3443 32.2488 75.3756C32.2765 75.4069 32.3157 75.4307 32.361 75.4438Z" fill="black"/>
</g>
<path d="M32.361 75.0822L45.85 81.2733C45.9674 81.3213 46.0976 81.3463 46.2297 81.3463C46.3618 81.3463 46.492 81.3213 46.6095 81.2733L56.56 76.7279C56.77 76.6306 56.77 76.475 56.56 76.3804L43.05 70.1755C42.932 70.129 42.802 70.1047 42.6702 70.1047C42.5385 70.1047 42.4085 70.129 42.2905 70.1755L32.361 74.7319C32.3157 74.7449 32.2765 74.7687 32.2488 74.8001C32.2211 74.8314 32.2063 74.8688 32.2063 74.9071C32.2063 74.9453 32.2211 74.9827 32.2488 75.014C32.2765 75.0454 32.3157 75.0692 32.361 75.0822Z" fill="#EBEBEB"/>
<path d="M42.2975 70.1756L32.8615 74.504L45.8499 80.4671C45.968 80.5137 46.0979 80.5379 46.2297 80.5379C46.3615 80.5379 46.4914 80.5137 46.6094 80.4671L56.0595 76.1387L43.05 70.1756C42.9329 70.1299 42.8041 70.1062 42.6737 70.1062C42.5433 70.1062 42.4145 70.1299 42.2975 70.1756Z" fill="#E0E0E0"/>
<path d="M32.361 73.9925L45.85 80.1836C45.9674 80.2316 46.0976 80.2566 46.2297 80.2566C46.3618 80.2566 46.492 80.2316 46.6095 80.1836L56.56 75.616C56.6053 75.603 56.6445 75.5792 56.6721 75.5478C56.6998 75.5165 56.7147 75.4792 56.7147 75.4409C56.7147 75.4026 56.6998 75.3652 56.6721 75.3339C56.6445 75.3026 56.6053 75.2788 56.56 75.2657L43.05 69.0858C42.9325 69.0378 42.8023 69.0127 42.6702 69.0127C42.5381 69.0127 42.4079 69.0378 42.2905 69.0858L32.361 73.6422C32.3157 73.6552 32.2765 73.679 32.2488 73.7104C32.2211 73.7417 32.2063 73.7791 32.2063 73.8174C32.2063 73.8556 32.2211 73.893 32.2488 73.9243C32.2765 73.9557 32.3157 73.9795 32.361 73.9925Z" fill="#FAFAFA"/>
<g opacity="0.2">
<path d="M47.6 68.8328L54.8975 72.1882C55.0362 72.2444 55.1897 72.2736 55.3455 72.2736C55.5012 72.2736 55.6547 72.2444 55.7935 72.1882L79.345 61.3824C79.3993 61.368 79.4466 61.3404 79.4801 61.3034C79.5136 61.2665 79.5317 61.2222 79.5317 61.1766C79.5317 61.1311 79.5136 61.0868 79.4801 61.0499C79.4466 61.0129 79.3993 60.9853 79.345 60.9709L72.051 57.6155C71.9116 57.5593 71.7575 57.53 71.6012 57.53C71.4449 57.53 71.2908 57.5593 71.1515 57.6155L47.6 68.4213C47.5456 68.4357 47.4983 68.4633 47.4648 68.5003C47.4313 68.5372 47.4133 68.5815 47.4133 68.6271C47.4133 68.6726 47.4313 68.7169 47.4648 68.7538C47.4983 68.7908 47.5456 68.8184 47.6 68.8328Z" fill="black"/>
</g>
<path d="M47.852 68.046V67.9154C47.8613 67.8035 47.9036 67.6949 47.9753 67.5984C48.047 67.5018 48.1462 67.42 48.265 67.3594L69.888 57.4348C70.0158 57.3828 70.1574 57.3557 70.301 57.3557C70.4446 57.3557 70.5861 57.3828 70.714 57.4348L77.413 60.515C77.531 60.5762 77.6296 60.6583 77.7013 60.7547C77.7729 60.8511 77.8156 60.9594 77.826 61.071V61.2017C77.8161 61.3134 77.7737 61.4218 77.702 61.5183C77.6303 61.6148 77.5314 61.6968 77.413 61.7577L55.79 71.6823C55.6621 71.7343 55.5206 71.7614 55.377 71.7614C55.2334 71.7614 55.0918 71.7343 54.964 71.6823L48.265 68.6132C48.1452 68.5508 48.0454 68.467 47.9737 68.3686C47.902 68.2701 47.8603 68.1596 47.852 68.046Z" fill="#E0E0E0"/>
<path d="M48.2649 67.7265L54.9499 70.8067C55.0783 70.8574 55.2196 70.8838 55.3629 70.8838C55.5063 70.8838 55.6476 70.8574 55.7759 70.8067L77.4129 60.8821C77.4624 60.8685 77.5052 60.8429 77.5355 60.809C77.5658 60.7752 77.5821 60.7346 77.5821 60.6931C77.5821 60.6515 77.5658 60.611 77.5355 60.5771C77.5052 60.5432 77.4624 60.5177 77.4129 60.504L70.6999 57.4238C70.5721 57.3718 70.4306 57.3447 70.2869 57.3447C70.1433 57.3447 70.0018 57.3718 69.8739 57.4238L48.2509 67.3484C48.202 67.3632 48.16 67.3897 48.1309 67.4243C48.1018 67.4589 48.087 67.4998 48.0885 67.5414C48.0901 67.583 48.1079 67.6232 48.1395 67.6563C48.1711 67.6895 48.215 67.714 48.2649 67.7265Z" fill="#FAFAFA"/>
<path d="M66.003 86.3413C67.6585 84.9986 68.6315 81.6431 67.0145 80.5784H58.8C57.183 81.6431 58.156 84.9958 59.8115 86.3385L59.857 86.3774L59.913 86.4219L60.0635 86.5276L60.102 86.5526L60.228 86.6276C60.298 86.6666 60.3715 86.7027 60.4415 86.7361C61.2067 87.0445 62.0527 87.2052 62.9107 87.2052C63.7688 87.2052 64.6148 87.0445 65.38 86.7361C65.454 86.7026 65.5253 86.6655 65.5935 86.6249L65.7125 86.5554L65.7615 86.5248C65.8105 86.4914 65.8595 86.4581 65.905 86.4219L65.9715 86.3719L66.003 86.3413Z" fill="#EBEBEB"/>
<path d="M59.5 80.1502C57.6205 81.0092 57.6205 82.4048 59.5 83.2666C61.3795 84.1284 64.4 84.1256 66.2935 83.2666C68.187 82.4075 68.1695 81.0092 66.2935 80.1502C64.4175 79.2912 61.383 79.2884 59.5 80.1502Z" fill="#FAFAFA"/>
<path d="M60.837 80.7589C59.696 81.2843 59.696 82.1322 60.837 82.6549C61.477 82.9141 62.1852 83.0492 62.9037 83.0492C63.6222 83.0492 64.3304 82.9141 64.9704 82.6549C66.1115 82.1322 66.1115 81.2843 64.9704 80.7589C64.3298 80.5012 63.6218 80.3669 62.9037 80.3669C62.1856 80.3669 61.4776 80.5012 60.837 80.7589Z" fill="#EBEBEB"/>
<path d="M64.9705 81.6598C64.3298 81.4021 63.6218 81.2678 62.9037 81.2678C62.1856 81.2678 61.4776 81.4021 60.837 81.6598C60.5552 81.7769 60.3146 81.9479 60.137 82.1574C60.3146 82.3669 60.5552 82.5379 60.837 82.655C61.477 82.9142 62.1853 83.0494 62.9037 83.0494C63.6222 83.0494 64.3304 82.9142 64.9705 82.655C65.2532 82.5391 65.4942 82.3678 65.6705 82.1574C65.4942 81.947 65.2532 81.7757 64.9705 81.6598Z" fill="#E0E0E0"/>
<path d="M61.089 82.1574C60.5044 81.6863 60.0018 81.1553 59.5945 80.5784C58.8945 79.6082 58.7755 78.3099 59.1325 78.1486C59.4895 77.9874 60.942 79.2857 60.942 79.2857C60.8079 78.7365 60.7562 78.1766 60.788 77.6177C60.851 76.7531 61.1135 75.9691 61.425 75.8107C61.7365 75.6522 62.4365 76.742 62.734 77.5315C63.0315 78.321 63.21 78.9715 63.21 78.9715C63.3314 78.3558 63.5104 77.748 63.7455 77.1534C64.0955 76.3333 64.4455 76.147 64.694 76.2304C64.9425 76.3138 65.1175 76.6919 65.191 77.7845C65.2181 78.3058 65.197 78.828 65.128 79.3468C65.128 79.3468 65.6425 78.8993 66.2095 78.4656C66.836 77.9902 67.102 77.9096 67.2805 78.0152C67.459 78.1209 67.508 78.8492 66.542 80.2392C66.0609 80.947 65.4446 81.5913 64.715 82.1491C64.715 82.1491 63.3745 82.8441 61.089 82.1574Z" fill="#FFC100"/>
<path d="M96.95 66.2752L98.7 49.5285C98.7178 49.2568 98.6469 48.9861 98.4942 48.7425C98.3415 48.499 98.1122 48.2909 97.8285 48.1385C97.5166 48.0182 97.1734 47.9581 96.8268 47.9629C96.4801 47.9677 96.1398 48.0374 95.8335 48.1663L72.7335 58.7553C72.4291 58.9134 72.1709 59.1215 71.9765 59.3656C71.7821 59.6097 71.6559 59.8842 71.6065 60.1703L69.8565 76.9143C69.8393 77.1856 69.9101 77.4559 70.0621 77.6993C70.2141 77.9426 70.4421 78.151 70.7245 78.3043C71.0372 78.4242 71.3811 78.4838 71.7283 78.4785C72.0755 78.4732 72.4162 78.403 72.723 78.2737L95.823 67.6875C96.1266 67.5294 96.3843 67.3217 96.5787 67.0781C96.773 66.8346 96.8996 66.5608 96.95 66.2752Z" fill="#FFC100"/>
<path opacity="0.5" d="M96.95 66.2752L98.7 49.5285C98.7178 49.2568 98.6469 48.9861 98.4942 48.7425C98.3415 48.499 98.1122 48.2909 97.8285 48.1385C97.5166 48.0182 97.1734 47.9581 96.8268 47.9629C96.4801 47.9677 96.1398 48.0374 95.8335 48.1663L72.7335 58.7553C72.4291 58.9134 72.1709 59.1215 71.9765 59.3656C71.7821 59.6097 71.6559 59.8842 71.6065 60.1703L69.8565 76.9143C69.8393 77.1856 69.9101 77.4559 70.0621 77.6993C70.2141 77.9426 70.4421 78.151 70.7245 78.3043C71.0372 78.4242 71.3811 78.4838 71.7283 78.4785C72.0755 78.4732 72.4162 78.403 72.723 78.2737L95.823 67.6875C96.1266 67.5294 96.3843 67.3217 96.5787 67.0781C96.773 66.8346 96.8996 66.5608 96.95 66.2752Z" fill="white"/>
<path d="M96.95 66.2752L98.7 49.5285C98.7178 49.2568 98.6469 48.9861 98.4942 48.7425C98.3415 48.499 98.1122 48.2909 97.8285 48.1385C97.5166 48.0182 97.1734 47.9581 96.8268 47.9629C96.4802 47.9677 96.1399 48.0374 95.8335 48.1663L72.7335 58.7553C72.4283 58.9064 72.1718 59.112 71.9845 59.3558L75.572 61.0016V76.9699L95.823 67.6847C96.1263 67.527 96.3837 67.3196 96.578 67.0766C96.7724 66.8335 96.8992 66.5603 96.95 66.2752Z" fill="#FFC100"/>
<path opacity="0.8" d="M96.95 66.2752L98.7 49.5285C98.7178 49.2568 98.6469 48.9861 98.4942 48.7425C98.3415 48.499 98.1122 48.2909 97.8285 48.1385C97.5166 48.0182 97.1734 47.9581 96.8268 47.9629C96.4802 47.9677 96.1399 48.0374 95.8335 48.1663L72.7335 58.7553C72.4283 58.9064 72.1718 59.112 71.9845 59.3558L75.572 61.0016V76.9699L95.823 67.6847C96.1263 67.527 96.3837 67.3196 96.578 67.0766C96.7724 66.8335 96.8992 66.5603 96.95 66.2752Z" fill="white"/>
<path d="M71.792 77.8066L73.542 61.0627C73.5912 60.7764 73.7173 60.502 73.9117 60.2578C74.1062 60.0137 74.3644 59.8056 74.669 59.6477L97.769 49.0586C98.3395 48.7973 98.756 49.0086 98.7035 49.5285L96.9535 66.2752C96.9036 66.5613 96.7773 66.8355 96.5829 67.0796C96.3885 67.3237 96.1306 67.5319 95.8265 67.6902L72.7265 78.2764C72.156 78.5378 71.75 78.3265 71.792 77.8066Z" fill="#FFC100"/>
<path opacity="0.65" d="M71.792 77.8066L73.542 61.0627C73.5912 60.7764 73.7173 60.502 73.9117 60.2578C74.1062 60.0137 74.3644 59.8056 74.669 59.6477L97.769 49.0586C98.3395 48.7973 98.756 49.0086 98.7035 49.5285L96.9535 66.2752C96.9036 66.5613 96.7773 66.8355 96.5829 67.0796C96.3885 67.3237 96.1306 67.5319 95.8265 67.6902L72.7265 78.2764C72.156 78.5378 71.75 78.3265 71.792 77.8066Z" fill="white"/>
<path d="M83.706 64.371C83.797 63.5148 84.553 62.5057 85.3965 62.1165C86.24 61.7273 86.8525 62.1165 86.7615 62.9644C86.6705 63.8123 85.918 64.8325 85.0745 65.2217C84.231 65.6109 83.6185 65.2301 83.706 64.371Z" fill="#FFC100"/>
<path d="M84.2484 69.4333L89.9254 66.8146L88.9594 66.3726L83.2859 68.9913L84.2484 69.4333Z" fill="#FFC100"/>
<g opacity="0.85">
<path d="M84.2484 69.4333L89.9254 66.8146L88.9594 66.3726L83.2859 68.9913L84.2484 69.4333Z" fill="white"/>
</g>
<path d="M92.5575 74.5041L85.6485 77.6733C85.5122 77.7315 85.3586 77.7594 85.204 77.7539C85.0737 77.7514 84.9457 77.7258 84.8295 77.6788L81.788 76.2888H81.7705C81.6558 76.2263 81.5608 76.1436 81.4928 76.0472C81.4248 75.9507 81.3857 75.8432 81.3785 75.7328V75.605C81.3785 75.3965 81.557 75.3103 81.788 75.4159L83.6255 76.2499L84.035 76.439L83.944 76.0692L83.3 68.9913L84.2625 69.4361L89.9395 66.8174L92.883 73.9481C92.9007 74.0557 92.8794 74.1652 92.8218 74.2636C92.7642 74.362 92.6725 74.4454 92.5575 74.5041Z" fill="#FFC100"/>
<g opacity="0.5">
<path d="M92.5575 74.5041L85.6485 77.6733C85.5122 77.7315 85.3586 77.7594 85.204 77.7539C85.0737 77.7514 84.9457 77.7258 84.8295 77.6788L81.788 76.2888H81.7705C81.6558 76.2263 81.5608 76.1436 81.4928 76.0472C81.4248 75.9507 81.3857 75.8432 81.3785 75.7328V75.605C81.3785 75.3965 81.557 75.3103 81.788 75.4159L83.6255 76.2499L84.035 76.439L83.944 76.0692L83.3 68.9913L84.2625 69.4361L89.9395 66.8174L92.883 73.9481C92.9007 74.0557 92.8794 74.1652 92.8218 74.2636C92.7642 74.362 92.6725 74.4454 92.5575 74.5041Z" fill="white"/>
</g>
<path d="M81.494 75.3632L83.8495 74.2817L84.329 76.8032L81.494 75.3632Z" fill="#FFC100"/>
<g opacity="0.25">
<path d="M81.494 75.3632L83.8495 74.2817L84.329 76.8032L81.494 75.3632Z" fill="black"/>
</g>
<path d="M84.2485 69.436L83.286 68.9912L83.9335 76.0496C83.986 76.2526 83.839 76.3276 83.615 76.2303L81.7775 75.3963C81.5465 75.2907 81.368 75.3769 81.368 75.5854V75.7133C81.3752 75.8236 81.4144 75.9312 81.4823 76.0276C81.5503 76.124 81.6453 76.2067 81.76 76.2693H81.7775L84.819 77.6593C84.9352 77.7062 85.0632 77.7319 85.1935 77.7343L84.2485 69.436Z" fill="#FFC100"/>
<g opacity="0.25">
<path d="M84.2485 69.436L83.286 68.9912L83.9335 76.0496C83.986 76.2526 83.839 76.3276 83.615 76.2303L81.7775 75.3963C81.5465 75.2907 81.368 75.3769 81.368 75.5854V75.7133C81.3752 75.8236 81.4144 75.9312 81.4823 76.0276C81.5503 76.124 81.6453 76.2067 81.76 76.2693H81.7775L84.819 77.6593C84.9352 77.7062 85.0632 77.7319 85.1935 77.7343L84.2485 69.436Z" fill="white"/>
</g>
<path opacity="0.2" d="M58.3975 74.0647L59.4615 74.5512L67.8545 70.6481L68.782 69.7808L66.85 70.1866L58.3975 74.0647Z" fill="black"/>
<path d="M66.9269 69.5946L68.7154 69.3166C68.7267 69.315 68.7383 69.3163 68.7487 69.3201C68.759 69.324 68.7677 69.3303 68.7734 69.3382C68.7791 69.346 68.7816 69.3551 68.7807 69.3642C68.7797 69.3732 68.7753 69.3818 68.7679 69.3888L67.5499 70.4786L66.9269 69.5946Z" fill="#FFA8A7"/>
<path d="M68.768 69.3888C68.7753 69.3818 68.7797 69.3732 68.7807 69.3642C68.7817 69.3551 68.7791 69.346 68.7734 69.3382C68.7677 69.3303 68.7591 69.324 68.7487 69.3201C68.7384 69.3163 68.7268 69.315 68.7155 69.3166L68.3655 69.3694C68.4137 69.393 68.4527 69.4268 68.4781 69.4671C68.5035 69.5074 68.5141 69.5525 68.509 69.5973V69.6224L68.768 69.3888Z" fill="#263238"/>
<path d="M60.9 73.5143L61.047 73.4476L61.2255 73.3697L67.55 70.4785C67.6092 70.3226 67.5917 70.1547 67.501 70.0087C67.4539 69.9078 67.3768 69.8174 67.2763 69.7453C67.1757 69.6732 67.0547 69.6214 66.9235 69.5945L60.585 72.4829L60.235 72.6358C60.4765 72.558 61.11 73.4225 60.9 73.5143Z" fill="#FFC100"/>
<path d="M61.4459 73.2642L61.7714 73.1141C61.8659 73.0724 61.8134 72.8862 61.6979 72.6916C61.5509 72.433 61.2569 72.1828 61.1274 72.2356L60.8894 72.3468L60.8019 72.3858C60.9314 72.3329 61.2254 72.5831 61.3724 72.8417C61.4809 73.0279 61.5369 73.2086 61.4529 73.2587L61.4459 73.2642Z" fill="#EBEBEB"/>
<path d="M61.5264 73.2252C61.7504 73.1307 61.1099 72.2522 60.8824 72.3467L60.5569 72.4968C60.7809 72.4023 61.4214 73.2808 61.1974 73.3753L61.5264 73.2252Z" fill="#FFC100"/>
<path d="M60.9 73.5145L61.2255 73.3699C61.446 73.2782 60.8335 72.4275 60.6025 72.4831L60.277 72.6332C60.4765 72.5581 61.11 73.4227 60.9 73.5145Z" fill="#EBEBEB"/>
<path opacity="0.15" d="M68.7749 69.3389L68.7154 69.3167L67.4169 69.8727L60.7074 72.9307C60.7074 72.914 60.6864 72.914 60.6794 72.9307C60.8684 73.167 61.0119 73.4644 60.8859 73.5145L61.0329 73.4477L61.2114 73.3699L67.5499 70.4787L68.7644 69.3889C68.772 69.3822 68.777 69.374 68.7789 69.3651C68.7807 69.3563 68.7794 69.3472 68.7749 69.3389Z" fill="black"/>
<path d="M59.5175 74.1398L60.886 73.5143C60.984 73.4754 60.9315 73.2891 60.8195 73.0973C60.6725 72.836 60.3785 72.5858 60.249 72.6358L58.8735 73.2613C58.6005 73.3864 58.8525 73.859 59.157 74.0675C59.2006 74.1074 59.2585 74.1357 59.323 74.1486C59.3874 74.1615 59.4553 74.1584 59.5175 74.1398Z" fill="#F28F8F"/>
<path opacity="0.1" d="M59.598 73.8007C59.5635 73.6828 59.495 73.573 59.3978 73.4798C59.3006 73.3867 59.1774 73.3128 59.038 73.2641C59.0045 73.2538 58.9684 73.2504 58.9328 73.2542C58.8973 73.2581 58.8636 73.2692 58.835 73.2864C58.6285 73.4365 58.8665 73.8702 59.157 74.0675C59.1998 74.1057 59.2559 74.133 59.3182 74.1458C59.3805 74.1587 59.4462 74.1566 59.507 74.1398C59.612 74.0926 59.6505 73.9675 59.598 73.8007Z" fill="black"/>
<path d="M108.171 22.1844C108.104 22.1547 108.028 22.1394 107.95 22.1399H103.95L102.298 22.8961V27.4358L103.95 26.688L105.374 25.3814V28.5784L107.026 27.8222L111.352 24.1248C111.394 24.0859 111.424 24.0403 111.441 23.9911C111.458 23.9419 111.462 23.8903 111.451 23.84C111.44 23.7897 111.416 23.7419 111.38 23.6998C111.343 23.6578 111.296 23.6226 111.24 23.5966L108.171 22.1844Z" fill="#455A64"/>
<path d="M105.381 28.5783L107.033 27.8222L111.359 24.1248C111.415 24.0744 111.45 24.0124 111.462 23.9462C111.474 23.8801 111.462 23.8126 111.427 23.7519C111.392 23.6911 111.335 23.6397 111.264 23.6038C111.194 23.5679 111.111 23.549 111.027 23.5493H107.033L105.381 24.3083V28.5783Z" fill="#37474F"/>
<path d="M107.044 19.8019C107.015 19.3654 106.856 18.9406 106.581 18.5619C106.306 18.1832 105.923 17.8613 105.462 17.6224C104.971 17.4241 104.428 17.3208 103.876 17.3208C103.325 17.3208 102.782 17.4241 102.291 17.6224L90.2475 23.099C89.7855 23.3379 89.4011 23.6601 89.1256 24.0393C88.8501 24.4185 88.6912 24.8441 88.662 25.2813V35.609C88.6918 36.0457 88.8509 36.4708 89.1264 36.8495C89.4019 37.2282 89.786 37.5499 90.2475 37.7885C90.7387 37.9868 91.282 38.0901 91.833 38.0901C92.384 38.0901 92.9272 37.9868 93.4185 37.7885L105.612 32.2285C107.037 31.5836 107.051 30.9358 107.051 30.1324L107.044 19.8019Z" fill="#37474F"/>
<path d="M88.662 35.6091C88.6918 36.0458 88.8509 36.4708 89.1264 36.8495C89.4019 37.2283 89.786 37.55 90.2475 37.7886C90.6946 37.9672 91.1841 38.069 91.684 38.0872C92.184 38.1054 92.6832 38.0396 93.149 37.8942C92.4035 38.1166 91.833 37.7775 91.833 37.0602V26.7325C91.8527 26.2945 92.013 25.8677 92.2985 25.4927L89.1275 24.0415C88.8429 24.4167 88.6839 24.8436 88.6655 25.2814L88.662 35.6091Z" fill="#263238"/>
<path d="M106.995 19.46C106.809 18.9235 106.193 18.7539 105.462 19.0903L93.415 24.553C92.9457 24.7832 92.5607 25.1072 92.2985 25.4926L89.1485 24.0443C89.4114 23.6585 89.7962 23.3337 90.265 23.1018L102.305 17.6252C102.797 17.4278 103.341 17.325 103.892 17.325C104.444 17.325 104.987 17.4278 105.479 17.6252C105.876 17.8334 106.214 18.1034 106.475 18.4188C106.735 18.7343 106.912 19.0885 106.995 19.46Z" fill="#455A64"/>
<path d="M101.017 32.2647L98.175 33.5686V24.5336L101.017 23.2297V32.2647Z" fill="#FFC100"/>
<path d="M103.863 24.9365V27.9473L95.333 31.8587V28.848L103.863 24.9365Z" fill="#FFC100"/>
<path d="M132.772 32.4397C135.572 32.5009 136.367 33.3905 138.054 35.3059C139.741 37.2213 145.481 44.4799 145.481 44.4799L153.611 46.9596L152.54 50.7265C152.54 50.7265 141.673 49.2643 140.962 48.9334C140.252 48.6026 134.96 41.6776 134.96 41.6776L132.772 32.4397Z" fill="#E6E6E6"/>
<path d="M130.63 32.501C133.276 31.9756 134.445 33.1487 135.327 34.447C139.335 40.285 140.962 75.313 140.962 75.313C140.962 75.313 132.023 78.1458 125.391 74.821L130.63 32.501Z" fill="#F0F0F0"/>
<path d="M139.153 92.7074L137.48 97.7642C137.48 97.7642 135.552 98.6677 133.889 97.7781C132.57 97.072 132.65 96.2352 132.65 96.2352L132.727 95.4734L132.916 89.5938L139.153 92.7074Z" fill="#B16668"/>
<path d="M131.103 98.968C130.644 99.777 130.382 102.14 130.382 102.14C130.382 102.14 130.662 103.01 132.184 103.78L133.665 100.655L131.103 98.968Z" fill="#263238"/>
<path d="M132.185 103.791L136.031 103.371L137.494 100.939L133.038 101.99L132.185 103.791Z" fill="black"/>
<path d="M137.77 96.8885L137.977 96.2713C138.561 96.2963 138.509 97.2137 138.551 97.4806C138.68 98.2451 138.778 99.0096 138.925 99.7713C139.078 100.615 139.325 101.446 139.664 102.254C140.014 103.024 140.217 103.844 140.808 104.525C141.4 105.206 142.439 105.609 143.279 106.068C143.502 106.169 143.686 106.316 143.811 106.493C144.004 106.833 143.734 107.225 143.402 107.483C142.812 107.92 142.069 108.205 141.27 108.3C140.476 108.394 139.668 108.394 138.873 108.3C137.461 108.18 136.109 107.782 134.939 107.144C133.812 106.505 133.567 105.24 133.385 104.217C133.238 103.383 133.329 102.412 132.895 101.631C132.461 100.85 131.222 99.8242 131.103 98.979C131.052 98.2628 131.243 97.5488 131.656 96.9107C132.107 96.2241 132.433 95.3484 132.727 95.4735L132.674 95.9739C132.674 95.9377 132.965 96.9357 134.774 97.2916C135.625 97.4612 137.231 97.4556 137.77 96.8885Z" fill="#263238"/>
<path d="M135.03 102.365C135.079 103.299 135.03 103.686 135.03 104.108C135.079 104.881 135.338 105.417 135.558 106.168C135.653 106.476 135.787 106.776 135.957 107.063C136.139 107.397 136.479 107.847 136.279 108.175C136.181 108.326 136.045 108.459 135.88 108.567C135.152 109.062 134.213 109.316 133.255 109.276C132.751 109.272 132.258 109.159 131.827 108.951C130.984 108.512 130.651 107.711 130.2 107.035C129.706 106.304 129.993 105.923 129.913 105.12C129.815 104.058 129.641 103 129.391 101.954C131.215 100.297 132.748 101.904 135.03 102.365Z" fill="#B16668"/>
<path d="M137.823 56.156C140.556 63.7232 145.173 76.5834 143.878 80.5866C142.898 83.5863 138.628 94.5395 138.628 94.5395C136.979 94.7229 133.609 95.0148 132.296 92.7213C131.964 88.9989 130.809 63.7232 130.809 63.7232L137.823 56.156Z" fill="#FFC100"/>
<path opacity="0.4" d="M137.823 56.156C140.556 63.7232 145.173 76.5834 143.878 80.5866C142.898 83.5863 138.628 94.5395 138.628 94.5395C136.979 94.7229 133.609 95.0148 132.296 92.7213C131.964 88.9989 130.809 63.7232 130.809 63.7232L137.823 56.156Z" fill="white"/>
<path opacity="0.25" d="M130.823 63.7091C132.558 62.4068 134.171 61.0056 135.65 59.5168C135.65 59.5168 135.299 61.3099 132.188 63.7814C132.188 63.7814 137.403 79.7358 137.371 82.2823C137.34 84.8287 135.621 93.9583 135.621 93.9583L130.823 63.7091Z" fill="black"/>
<path d="M137.823 56.1558C135.593 59.8282 134.718 61.2961 130.823 63.723C130.823 63.723 135.586 79.4467 135.796 82.4991C136.146 87.5726 135.324 98.9289 135.03 102.379C134.291 103.146 130.693 103.277 129.559 102.624C129.041 101.028 127.302 95.4122 126.486 90.3749C125.884 86.6524 126.654 83.322 126.752 82.3462C124.229 77.2338 118.562 69.7723 116.49 64.4263C116.151 63.501 115.936 62.5495 115.85 61.588C115.388 58.1991 117.134 55.611 118.16 53.804L137.823 56.1558Z" fill="#FFC100"/>
<g opacity="0.5">
<path d="M137.823 56.1558C135.593 59.8282 134.718 61.2961 130.823 63.723C130.823 63.723 135.586 79.4467 135.796 82.4991C136.146 87.5726 135.324 98.9289 135.03 102.379C134.291 103.146 130.693 103.277 129.559 102.624C129.041 101.028 127.302 95.4122 126.486 90.3749C125.884 86.6524 126.654 83.322 126.752 82.3462C124.229 77.2338 118.562 69.7723 116.49 64.4263C116.151 63.501 115.936 62.5495 115.85 61.588C115.388 58.1991 117.134 55.611 118.16 53.804L137.823 56.1558Z" fill="white"/>
</g>
<path d="M129.006 107.683C128.73 108.539 128.982 110.9 128.982 110.9C128.982 110.9 129.44 111.717 131.103 112.27L131.89 108.995L129.006 107.683Z" fill="#263238"/>
<path d="M131.103 112.27L134.799 111.333L135.712 108.745L131.558 110.38L131.103 112.27Z" fill="black"/>
<path d="M135.016 104.723L135.044 104.108C135.541 104.306 136.608 107.511 138.071 109.718C139.408 111.731 142.089 112.865 142.954 113.744C144.109 114.92 141.82 116.407 138.176 115.762C136.37 115.439 133.626 114.5 132.905 113.524C132.184 112.548 131.939 110.763 131.341 110.046C130.742 109.329 129.304 108.498 129.006 107.683C128.774 106.946 128.785 106.173 129.038 105.44C129.332 104.703 129.318 103.947 129.783 103.886L129.853 104.464C130.095 104.862 131.04 105.317 132.881 105.412C133.759 105.454 134.61 105.362 135.016 104.723Z" fill="#37474F"/>
<path d="M128.569 26.1707L126.731 31.1052C121.621 31.1052 118.464 27.1521 118.464 23.0933C118.464 19.0178 121.733 15.6123 126.864 15.6123H128.53C133.661 15.6123 137.823 18.3172 137.823 22.3955C137.823 25.0504 133.679 26.1707 128.569 26.1707Z" fill="#263238"/>
<path d="M138.782 18.6259C139.174 18.1171 139.363 17.5259 139.325 16.9301C139.3 16.632 139.191 16.3422 139.005 16.0826C138.818 15.823 138.56 15.6005 138.25 15.4317C137.294 14.948 135.971 15.1759 135.1 15.7347C135.029 15.2039 134.701 14.7158 134.185 14.3738C133.669 14.0318 133.005 13.8629 132.335 13.9027C131.485 13.9555 130.729 14.3308 129.994 14.67C128.742 15.1738 127.392 15.5038 126 15.6458L127.565 16.1239C127.352 16.384 127.217 16.6792 127.169 16.9871C127.122 17.2949 127.164 17.6073 127.292 17.9003C127.359 18.0205 127.441 18.1351 127.537 18.2423C128.575 19.4762 130.01 20.4676 131.692 21.1142C133.374 21.7607 135.243 22.039 137.106 21.9202C137.628 21.9113 138.139 21.7964 138.59 21.5866C138.852 21.438 139.075 21.249 139.244 21.0306C139.571 20.6511 139.732 20.1971 139.702 19.7379C139.682 19.5054 139.586 19.2811 139.425 19.0863C139.264 18.8916 139.043 18.7331 138.782 18.6259Z" fill="#263238"/>
<path d="M124.579 33.082L121.229 33.36C119.007 33.7909 118.002 34.5693 117.775 36.14C117.67 36.8684 117.113 38.8088 117.89 41.2413C118.59 43.4431 120.473 48.8335 120.473 48.8335C120.473 48.8335 118.041 53.6791 116.9 56.156C124.803 60.251 134.557 58.633 137.833 56.156C137.557 53.8153 136.514 51.633 136.279 49.5452C136.279 49.5452 136.447 46.2815 136.773 44.8665C139.275 42.7008 138.953 40.627 137.823 38.9562C135.751 35.8676 132.625 33.1571 131.617 33.1599L124.579 33.082Z" fill="#455A64"/>
<path d="M130.585 31.3276C131.586 31.5222 132.366 31.8447 132.772 32.4396C133.178 33.0346 136.346 36.9961 136.346 36.9961C136.346 36.9961 133.791 34.3245 131.866 33.5155C131.473 33.3333 131.037 33.2178 130.585 33.1763V31.3276Z" fill="#E0E0E0"/>
<path d="M124.579 33.082C124.579 33.082 128.079 38.8783 128.702 42.7898C129.325 46.7012 128.002 60.0452 128.002 64.2792C128.002 69.3833 128.023 77.8067 128.023 77.8067C128.023 77.8067 124.029 77.8067 121.285 77.1839C119.28 76.7308 116.903 75.9163 115.465 74.5513C115.465 74.5513 115.073 64.104 115.899 59.1278C116.679 54.4018 119.847 48.5805 119.847 48.5805L115.787 36.2873C115.787 36.2873 115.976 34.1746 118.478 33.5824C120.848 33.0153 124.579 33.082 124.579 33.082Z" fill="#FAFAFA"/>
<path d="M121.285 35.6118L117.141 40.4296L119.833 48.575C119.833 48.575 117.334 52.7644 116.413 56.8204C118.909 51.2132 121.163 49.5313 121.163 49.5313L119.7 44.7886C119.7 44.7886 120.214 43.2957 120.932 40.7493C121.649 38.2028 121.53 36.7266 121.285 35.6118Z" fill="#EBEBEB"/>
<path d="M123.55 40.1541C123.55 39.9123 123.522 39.3896 123.469 38.728C123.21 35.5004 123.091 32.5814 124.463 32.334L124.586 32.7788C123.581 32.9511 123.914 37.1184 124.04 38.6863C124.096 39.3618 124.138 39.8928 124.124 40.1597L123.55 40.1541Z" fill="#FFC100"/>
<path d="M124.579 31.3276C124.324 31.3287 124.074 31.3853 123.856 31.4911C123.638 31.5969 123.461 31.7481 123.343 31.9281C123.014 32.3729 122.321 33.1207 122.321 33.1207C122.321 33.1207 122.297 36.0842 122.671 36.8543C122.993 37.5215 126.948 39.9929 126.948 39.9929C126.948 39.9929 126.563 42.6089 126.532 43.5235C126.5 44.4381 128.53 47.7547 128.779 49.5311C128.779 49.5311 129.199 45.2165 128.87 43.2121C128.293 39.7232 125.552 34.5052 124.579 33.0763V31.3276Z" fill="#EBEBEB"/>
<path d="M122.72 50.949H122.671V50.6321C123.147 50.6006 123.602 50.4659 123.987 50.2429C123.576 50.0253 123.208 49.7602 122.895 49.4562C122.248 48.7918 120.834 44.0519 121.271 42.9482C121.621 42.0225 122.78 39.9792 123.802 39.9458H123.826C124.845 39.9458 126.182 41.8751 126.644 42.7647C127.197 43.8378 126.294 48.6555 125.72 49.3589C125.442 49.6841 125.103 49.9737 124.715 50.2179C125.121 50.417 125.59 50.521 126.066 50.5181L126.115 50.8323C125.494 50.8407 124.885 50.7002 124.365 50.4292C123.89 50.7221 123.32 50.9023 122.72 50.949ZM123.844 40.2599C123.245 40.2794 122.171 41.7945 121.681 43.0399C121.278 44.0546 122.64 48.6416 123.238 49.2588C123.557 49.5643 123.933 49.8279 124.355 50.04C124.761 49.8003 125.115 49.5102 125.405 49.181C125.937 48.5277 126.805 43.8656 126.29 42.8815C125.667 41.7 124.446 40.2599 123.844 40.2599Z" fill="#455A64"/>
<path d="M126.7 50.6515C126.705 50.7438 126.675 50.8351 126.614 50.9139C126.554 50.9927 126.465 51.0555 126.36 51.0943C126.254 51.1331 126.137 51.1462 126.022 51.132C125.907 51.1177 125.8 51.0768 125.714 51.0143C125.629 50.9517 125.569 50.8705 125.541 50.7808C125.514 50.691 125.52 50.5968 125.56 50.5101C125.6 50.4234 125.672 50.348 125.765 50.2935C125.859 50.239 125.971 50.2079 126.087 50.2039C126.243 50.1994 126.395 50.2439 126.51 50.3277C126.624 50.4115 126.693 50.5279 126.7 50.6515Z" fill="#263238"/>
<path d="M123.267 50.7683C123.271 50.8606 123.241 50.9519 123.181 51.0307C123.12 51.1095 123.032 51.1723 122.926 51.2111C122.821 51.2499 122.703 51.263 122.588 51.2488C122.473 51.2346 122.366 51.1936 122.281 51.1311C122.195 51.0685 122.135 50.9873 122.108 50.8976C122.08 50.8078 122.087 50.7137 122.127 50.6269C122.167 50.5402 122.238 50.4648 122.332 50.4103C122.426 50.3558 122.538 50.3247 122.654 50.3207C122.731 50.3181 122.808 50.3276 122.881 50.3487C122.954 50.3698 123.02 50.4021 123.077 50.4436C123.134 50.4852 123.18 50.5353 123.213 50.591C123.245 50.6467 123.263 50.707 123.267 50.7683Z" fill="#263238"/>
<path d="M126.756 44.8525L126.406 44.833C126.389 44.8323 126.372 44.8289 126.357 44.8228C126.341 44.8168 126.327 44.8083 126.316 44.7979C126.305 44.7875 126.297 44.7753 126.292 44.7622C126.287 44.7492 126.285 44.7354 126.287 44.7218C126.353 43.8322 126.318 43.1761 126.182 42.9148C125.587 41.7639 124.362 40.3239 123.826 40.3405C123.291 40.3572 122.22 41.8779 121.751 43.0649C121.646 43.3429 121.677 43.9907 121.842 44.8719C121.847 44.8992 121.839 44.9269 121.818 44.9492C121.798 44.9715 121.768 44.9867 121.733 44.9915L121.383 45.0332C121.366 45.0351 121.348 45.0343 121.331 45.0307C121.314 45.0271 121.298 45.0209 121.284 45.0124C121.27 45.0038 121.258 44.9932 121.25 44.981C121.241 44.9688 121.235 44.9554 121.233 44.9414C121.047 43.9518 121.026 43.2734 121.163 42.9204C121.415 42.2865 122.594 39.9041 123.784 39.8624C124.974 39.8207 126.406 42.117 126.724 42.7341C126.899 43.0733 126.952 43.7516 126.871 44.7524C126.87 44.7772 126.858 44.8008 126.837 44.8191C126.816 44.8374 126.787 44.8492 126.756 44.8525Z" fill="#FFC100"/>
<path d="M112.959 69.0828C113.568 69.536 113.9 70.1448 114.527 71.0455C115.153 71.9462 118.244 72.0324 118.489 69.4998C118.674 67.5928 117.834 66.9478 116.151 65.4633C114.383 63.9009 113.701 63.6452 113.781 62.1968C113.827 61.4823 115.181 51.1407 115.181 51.1407L119.637 41.3913C119.637 41.3913 121.247 36.8348 120.438 33.6601C120.438 33.6601 117.551 33.4738 115.51 35.0918C113.127 36.9822 110.428 46.3285 109.833 48.2162C108.976 50.608 108.602 53.0926 108.724 55.5776C108.864 58.6106 108.878 64.949 109.385 66.3473C109.893 67.7457 111.317 67.8624 112.959 69.0828Z" fill="#B16668"/>
<path d="M120.638 33.2405C120.638 33.2405 117.568 33.0876 115.773 34.2552C113.977 35.4228 112.861 38.6865 111.541 41.9474C110.222 45.2084 109.046 48.3859 108.612 50.6711C108.262 52.5837 108.962 62.6807 108.962 62.6807C108.962 62.6807 111.006 63.27 113.781 62.197L115.5 51.152L120.645 40.0654C121.593 37.8524 121.591 35.4522 120.638 33.2405Z" fill="#F0F0F0"/>
<path d="M132.597 19.3376C134.935 19.5295 136.888 21.5033 136.759 25.9818C136.647 29.7793 135.096 30.7078 134.309 30.9858C133.521 31.2638 132.03 31.3 130.574 31.1054V33.1765C130.574 33.1765 132.254 36.1177 131.54 37.1686C127.554 35.862 124.579 33.082 124.579 33.082V28.3893C124.579 28.3893 123.595 29.3151 121.985 28.4672C120.375 27.6193 120.312 25.5148 121.25 24.7586C122.188 24.0025 124.204 24.2443 124.579 25.2868C124.579 25.2868 125.979 25.259 128.558 23.7995C130.521 22.7339 131.951 21.1548 132.597 19.3376Z" fill="#B16668"/>
<path d="M130.266 24.525C130.274 24.5931 130.265 24.6617 130.238 24.7268C130.212 24.7919 130.169 24.8522 130.113 24.904C130.057 24.9558 129.989 24.9982 129.911 25.0286C129.834 25.059 129.75 25.0768 129.664 25.081C129.533 25.0902 129.402 25.0682 129.287 25.0177C129.172 24.9672 129.078 24.8906 129.018 24.7976C128.958 24.7047 128.934 24.5996 128.949 24.4958C128.965 24.392 129.019 24.2943 129.105 24.2151C129.191 24.1358 129.304 24.0787 129.431 24.051C129.558 24.0233 129.692 24.0263 129.817 24.0596C129.942 24.0929 130.051 24.1549 130.131 24.2378C130.211 24.3207 130.258 24.4207 130.266 24.525Z" fill="#263238"/>
<path d="M130.938 28.0779L132.835 28.5588C132.801 28.6596 132.742 28.7538 132.661 28.8359C132.58 28.918 132.479 28.9862 132.364 29.0366C132.249 29.0869 132.122 29.1183 131.992 29.1289C131.861 29.1395 131.729 29.129 131.603 29.0981C131.349 29.0282 131.138 28.8833 131.015 28.6935C130.891 28.5036 130.864 28.2832 130.938 28.0779Z" fill="#9A4A4D"/>
<path d="M135.905 23.3518L134.617 22.6429C134.671 22.574 134.742 22.5146 134.827 22.4683C134.911 22.422 135.006 22.3899 135.106 22.3737C135.206 22.3576 135.309 22.3579 135.409 22.3745C135.51 22.3911 135.604 22.4238 135.688 22.4705C135.861 22.5667 135.98 22.7122 136.02 22.8765C136.06 23.0408 136.019 23.2111 135.905 23.3518Z" fill="#263238"/>
<path d="M135.45 24.4277C135.451 24.5269 135.416 24.6242 135.348 24.7075C135.28 24.7908 135.183 24.8564 135.068 24.8962C134.954 24.9359 134.827 24.9481 134.704 24.9311C134.581 24.9142 134.467 24.8689 134.376 24.8008C134.285 24.7328 134.222 24.645 134.193 24.5484C134.164 24.4519 134.172 24.3507 134.215 24.2576C134.259 24.1646 134.335 24.0836 134.436 24.0249C134.537 23.9661 134.657 23.9322 134.781 23.9273C134.867 23.9251 134.952 23.9363 135.032 23.9602C135.112 23.9842 135.185 24.0205 135.247 24.067C135.309 24.1135 135.359 24.1693 135.394 24.2312C135.429 24.2931 135.448 24.3599 135.45 24.4277Z" fill="#263238"/>
<path d="M132.219 24.1387L132.321 27.18L134.337 26.6852L132.219 24.1387Z" fill="#9A4A4D"/>
<path d="M130.585 31.1054C129.045 30.947 125.884 30.0184 125.391 29.0232C125.588 29.5261 125.976 29.9687 126.5 30.2909C127.445 30.9358 130.585 31.6586 130.585 31.6586V31.1054Z" fill="#9A4A4D"/>
<path d="M156.292 43.2234L141.074 48.9752L136.888 63.3589L137.228 63.6453L151.693 57.8656L156.632 43.5097L156.292 43.2234Z" fill="#FFC100"/>
<path opacity="0.35" d="M141.417 49.2642L137.228 63.6452L136.888 63.3588L141.074 48.9751L141.417 49.2642Z" fill="black"/>
<path opacity="0.25" d="M156.632 43.5098L141.417 49.2644L137.228 63.6453L151.693 57.8657L156.632 43.5098Z" fill="black"/>
<g opacity="0.2">
<path d="M149.45 54.941C149.59 55.219 150.755 55.8473 152.446 55.7361L152.729 54.9021L149.45 54.941Z" fill="black"/>
</g>
<g opacity="0.1">
<path d="M152.047 46.4565L152.173 45.9755C152.243 45.6975 151.35 45.8476 150.178 46.2869L147.938 47.1209C146.766 47.5601 145.761 48.1328 145.691 48.3997L145.565 48.8806L152.047 46.4565Z" fill="black"/>
</g>
<path d="M152.971 44.2019C153.016 44.0351 152.652 44.0546 152.162 44.2464L151.277 44.5911C151.277 44.5911 151.539 43.5486 149.569 44.2297C147.598 44.9108 147.171 46.1145 147.171 46.1145L146.223 46.4898C145.698 46.6956 145.225 47.0014 145.173 47.1682L145.061 47.474L152.897 44.5133C152.897 44.5133 152.929 44.3687 152.971 44.2019Z" fill="#37474F"/>
<path d="M152.138 45.1999C151.42 45.4584 151.119 45.5863 151.014 45.9977C150.892 46.4648 150.843 46.8039 150.843 46.8039L147.371 48.1161C147.371 48.1161 147.539 47.5212 147.591 47.2821C147.644 47.043 147.528 46.9374 146.975 47.1487L146.758 46.6649L152.358 44.5911L152.138 45.1999Z" fill="#37474F"/>
<path d="M152.25 46.4649C152.25 46.4649 152.306 46.2481 152.376 45.984C152.446 45.7199 151.554 45.8561 150.381 46.2954L148.138 47.1294C146.969 47.5686 145.964 48.1413 145.894 48.4082L145.768 48.8891L152.25 46.4649Z" fill="#37474F"/>
<path d="M154.938 48.4304C154.938 48.4304 154.399 50.0095 154.259 50.407C154.119 50.8045 151.627 51.7192 150.377 51.8443C147.99 52.0806 147.721 52.492 148.295 53.8375C148.823 55.0774 150.377 55.5472 152.533 55.3443C153.541 55.2498 154.938 54.5381 155.487 53.2954C156.187 51.7108 155.809 50.015 156.086 49.0893C156.362 48.1635 155.547 47.88 154.938 48.4304Z" fill="#B16668"/>
<path d="M17.836 32.162L18.5465 32.4873L36.309 24.3419L35.5985 24.0166L17.836 32.162Z" fill="#455A64"/>
<path d="M35.5985 24.0166L18.5465 31.8367V20.0968L35.5985 12.2766V24.0166Z" fill="#FFC100"/>
<g opacity="0.8">
<path d="M35.5985 24.0166L18.5465 31.8367V20.0968L35.5985 12.2766V24.0166Z" fill="white"/>
</g>
<path d="M37.0195 10.9727L17.85 19.7686V33.4656L37.0335 24.6669L37.0195 10.9727ZM36.3195 24.3417L18.55 32.4871V20.0966L36.309 11.954L36.3195 24.3417Z" fill="#37474F"/>
<path d="M36.309 24.3417L35.5985 24.0165V12.2765L36.309 11.9485V24.3417Z" fill="#263238"/>
<path d="M37.0195 10.9727L36.309 10.6475L17.1255 19.4434L17.836 19.7686L37.0195 10.9727Z" fill="#455A64"/>
<path d="M17.1255 19.4434L17.836 19.7686V33.4657L17.1255 33.1404V19.4434Z" fill="#263238"/>
<path d="M32.2525 22.0426C32.9175 21.7368 33.453 21.9843 33.453 22.5986C33.4307 22.9291 33.3103 23.2508 33.1017 23.5373C32.893 23.8238 32.6021 24.067 32.2525 24.2472C31.591 24.5502 31.0555 24.3056 31.0555 23.6912C31.0779 23.361 31.198 23.0397 31.406 22.7533C31.6139 22.4669 31.9039 22.2234 32.2525 22.0426Z" fill="#FFC100"/>
<path opacity="0.2" d="M22.561 19.5601L31.591 15.4179C31.843 15.3011 32.046 15.3956 32.046 15.6236V15.6458C32.0377 15.7712 31.9922 15.8933 31.9131 16.002C31.834 16.1107 31.7237 16.203 31.591 16.2713L22.561 20.4191C22.3125 20.5358 22.106 20.4413 22.106 20.2106V20.1856C22.1157 20.0604 22.1618 19.9388 22.2407 19.8302C22.3197 19.7217 22.4293 19.6292 22.561 19.5601Z" fill="black"/>
<g opacity="0.2">
<path d="M21.133 22.8239L33.033 17.3751C33.285 17.2583 33.488 17.3112 33.488 17.4919C33.4698 17.6029 33.4192 17.7089 33.3402 17.8016C33.2612 17.8943 33.156 17.971 33.033 18.0256L21.133 23.48C20.8845 23.5967 20.6815 23.5439 20.685 23.3604C20.7032 23.2498 20.753 23.1439 20.8306 23.0509C20.9083 22.9579 21.0117 22.8802 21.133 22.8239Z" fill="black"/>
<path d="M21.133 24.1277L33.033 18.6762C33.285 18.5622 33.488 18.615 33.488 18.7929C33.4696 18.9042 33.4189 19.0106 33.3399 19.1037C33.261 19.1968 33.1559 19.2741 33.033 19.3295L21.133 24.7838C20.8845 24.8978 20.6815 24.845 20.685 24.6643C20.7026 24.5535 20.7523 24.4474 20.83 24.3544C20.9077 24.2613 21.0114 24.1838 21.133 24.1277Z" fill="black"/>
<path d="M21.133 25.4286L33.033 19.9771C33.285 19.8631 33.488 19.9159 33.488 20.0966C33.4698 20.2076 33.4192 20.3137 33.3402 20.4064C33.2612 20.499 33.156 20.5758 33.033 20.6304L21.133 26.0847C20.8845 26.2015 20.6815 26.1459 20.685 25.9652C20.7032 25.8545 20.753 25.7486 20.8306 25.6556C20.9083 25.5626 21.0117 25.485 21.133 25.4286Z" fill="black"/>
</g>
<path opacity="0.3" d="M30.121 24.8282C30.029 24.8668 29.9274 24.8887 29.8235 24.8922C29.568 24.8922 29.5925 24.6864 29.5995 24.5447C29.5995 24.4807 29.491 24.3806 29.435 24.4668C29.281 24.6864 29.085 24.8922 28.917 25.1062C28.8155 25.2369 28.623 25.5343 28.378 25.4926C28.28 25.476 28.245 25.3898 28.245 25.2814C28.3686 25.1013 28.4233 24.8964 28.4025 24.692C28.4025 24.6308 28.2625 24.5558 28.224 24.6392C28.1354 24.8167 28.0834 25.0045 28.07 25.1952C27.9564 25.3538 27.8277 25.5053 27.685 25.6483C27.601 25.7345 27.531 25.8318 27.44 25.9263C27.4155 25.9458 27.3735 25.9958 27.3385 25.9986C27.3035 26.0014 27.265 25.9708 27.2545 25.9263C27.2502 25.8609 27.2633 25.7956 27.293 25.7345C27.293 25.7345 27.293 25.7345 27.293 25.7178C27.293 25.6539 27.188 25.5594 27.146 25.64C26.9891 25.9803 26.7515 26.2936 26.446 26.5629L26.4005 26.5935C26.4005 26.5546 26.4005 26.5185 26.4005 26.4795C26.3961 26.3927 26.3773 26.3067 26.3445 26.2238C26.3235 26.1821 26.2325 26.1181 26.1835 26.1737C25.9662 26.4878 25.7005 26.7792 25.3925 27.0411C25.3407 27.0749 25.2857 27.1056 25.228 27.1328C25.172 27.1106 25.256 26.8799 25.27 26.8548C25.3015 26.752 25.3435 26.6519 25.3855 26.5518C25.4291 26.4716 25.4608 26.3876 25.48 26.3016C25.48 26.2238 25.3295 26.1042 25.298 26.2099C25.298 26.2516 25.2385 26.3544 25.1895 26.4879C24.9864 26.7863 24.7559 27.0725 24.5 27.3441C24.2703 27.6383 23.9514 27.882 23.5725 28.053C23.4675 28.0975 23.268 28.1642 23.1525 28.0975C23.037 28.0308 23.0475 27.9168 23.044 27.8195C23.0394 27.5985 23.0772 27.3782 23.156 27.1662C23.5289 27.0094 23.8748 26.8151 24.185 26.588C24.4895 26.3946 24.753 26.1637 24.9655 25.9041C25.0705 25.7512 25.1335 25.5038 24.878 25.4176C24.6995 25.3564 24.472 25.4565 24.3215 25.5232C24.1149 25.6204 23.9274 25.7413 23.765 25.8818C23.4359 26.1788 23.1965 26.5316 23.065 26.9132C23.044 26.9716 23.0125 27.0494 22.9845 27.1356C22.5813 27.2998 22.1241 27.3609 21.6755 27.3108C21.651 27.3108 21.6405 27.3525 21.6755 27.3552C22.1049 27.4284 22.5523 27.3944 22.9565 27.2579C22.841 27.6527 22.778 28.1753 23.24 28.2782C23.702 28.3811 24.262 27.9196 24.5105 27.6527C24.7009 27.4533 24.8672 27.2402 25.0075 27.0161C25.0203 26.9997 25.0343 26.9839 25.0495 26.9688C25.0495 27.1523 25.095 27.2857 25.3225 27.2468C25.55 27.2079 25.7565 26.9688 25.8825 26.8215C26.0085 26.6741 26.11 26.5435 26.2325 26.4128C26.2535 26.5796 26.2885 26.7659 26.488 26.7353C26.6875 26.7047 26.838 26.4295 26.943 26.3183C27.048 26.2071 27.1005 26.1237 27.167 26.0236C27.181 26.0419 27.1961 26.0595 27.2125 26.0764C27.377 26.2154 27.5625 26.0764 27.6815 25.9541C27.832 25.7984 28 25.6316 28.1435 25.4537C28.1776 25.5301 28.2479 25.593 28.3395 25.6289C28.595 25.7234 28.833 25.5566 28.98 25.4092C29.1586 25.2156 29.3178 25.0111 29.456 24.7976C29.4664 24.838 29.4874 24.8762 29.5175 24.9097C29.5477 24.9432 29.5863 24.9713 29.631 24.9922C29.7251 25.03 29.8303 25.047 29.9355 25.0417C30.0407 25.0363 30.1422 25.0087 30.2295 24.9617C30.2785 24.9311 30.205 24.7949 30.121 24.8282ZM24.5595 25.6177C24.675 25.5705 24.9095 25.4899 24.934 25.6483C24.918 25.752 24.8617 25.8492 24.773 25.9263C24.5706 26.1429 24.3355 26.339 24.073 26.5101C23.8056 26.7059 23.5163 26.8817 23.2085 27.0355C23.2988 26.7381 23.4654 26.4587 23.6978 26.2147C23.9303 25.9708 24.2236 25.7675 24.5595 25.6177Z" fill="black"/>
<path d="M45.836 32.162L46.5465 32.4873L64.309 24.3419L63.5985 24.0166L45.836 32.162Z" fill="#455A64"/>
<path d="M63.5985 24.0166L46.5465 31.8367V20.0968L63.5985 12.2766V24.0166Z" fill="#FFC100"/>
<g opacity="0.8">
<path d="M63.5985 24.0166L46.5465 31.8367V20.0968L63.5985 12.2766V24.0166Z" fill="white"/>
</g>
<path d="M65.0195 10.9727L45.85 19.7686V33.4656L65.0335 24.6669L65.0195 10.9727ZM64.3195 24.3417L46.55 32.4871V20.0966L64.309 11.954L64.3195 24.3417Z" fill="#37474F"/>
<path d="M64.309 24.3417L63.5985 24.0165V12.2765L64.309 11.9485V24.3417Z" fill="#263238"/>
<path d="M65.0195 10.9727L64.309 10.6475L45.1255 19.4434L45.836 19.7686L65.0195 10.9727Z" fill="#455A64"/>
<path d="M45.1255 19.4434L45.836 19.7686V33.4657L45.1255 33.1404V19.4434Z" fill="#263238"/>
<path d="M60.256 22.0426C60.9175 21.7368 61.453 21.9843 61.453 22.5986C61.4305 22.9288 61.3105 23.2501 61.1025 23.5365C60.8945 23.8229 60.6045 24.0664 60.256 24.2472C59.591 24.5502 59.0555 24.3056 59.0555 23.6912C59.0778 23.3607 59.1981 23.039 59.4068 22.7525C59.6154 22.466 59.9064 22.2228 60.256 22.0426Z" fill="#FFC100"/>
<path opacity="0.2" d="M50.561 19.5601L59.5945 15.4179C59.843 15.3011 60.046 15.3956 60.046 15.6236V15.6458C60.0378 15.7709 59.9927 15.8927 59.9143 16.0014C59.8358 16.11 59.7263 16.2025 59.5945 16.2713L50.561 20.4191C50.3125 20.5358 50.1095 20.4413 50.1095 20.2106V20.1856C50.1185 20.0606 50.1639 19.939 50.2423 19.8305C50.3207 19.7219 50.4298 19.6293 50.561 19.5601Z" fill="black"/>
<g opacity="0.2">
<path d="M49.133 22.8239L61.033 17.3751C61.285 17.2583 61.488 17.3112 61.488 17.4919C61.4698 17.6029 61.4192 17.7089 61.3402 17.8016C61.2612 17.8943 61.156 17.971 61.033 18.0256L49.133 23.48C48.8845 23.5967 48.6815 23.5439 48.685 23.3604C48.7032 23.2498 48.753 23.1439 48.8306 23.0509C48.9083 22.9579 49.0117 22.8802 49.133 22.8239Z" fill="black"/>
<path d="M49.133 24.1277L61.033 18.6762C61.285 18.5622 61.488 18.615 61.488 18.7929C61.4696 18.9042 61.4189 19.0106 61.3399 19.1037C61.261 19.1968 61.1559 19.2741 61.033 19.3295L49.133 24.7838C48.8845 24.8978 48.6815 24.845 48.685 24.6643C48.7026 24.5535 48.7523 24.4474 48.83 24.3544C48.9077 24.2613 49.0114 24.1838 49.133 24.1277Z" fill="black"/>
<path d="M49.133 25.4286L61.033 19.9771C61.285 19.8631 61.488 19.9159 61.488 20.0966C61.4698 20.2076 61.4192 20.3137 61.3402 20.4064C61.2612 20.499 61.156 20.5758 61.033 20.6304L49.133 26.0847C48.8845 26.2015 48.6815 26.1459 48.685 25.9652C48.7032 25.8545 48.753 25.7486 48.8306 25.6556C48.9083 25.5626 49.0117 25.485 49.133 25.4286Z" fill="black"/>
</g>
<path opacity="0.3" d="M58.121 24.8282C58.0294 24.8675 57.9276 24.8893 57.8235 24.8922C57.5715 24.8922 57.5925 24.6864 57.5995 24.5447C57.5995 24.4807 57.491 24.3806 57.435 24.4668C57.281 24.6864 57.085 24.8922 56.917 25.1062C56.819 25.2369 56.623 25.5343 56.3815 25.4926C56.28 25.476 56.245 25.3898 56.245 25.2814C56.3686 25.1013 56.4233 24.8964 56.4025 24.692C56.4025 24.6308 56.266 24.5558 56.224 24.6392C56.1354 24.8167 56.0834 25.0045 56.07 25.1952C55.9564 25.3538 55.8277 25.5053 55.685 25.6483C55.6045 25.7345 55.531 25.8318 55.44 25.9263C55.419 25.9458 55.3735 25.9958 55.3385 25.9986C55.3035 26.0014 55.265 25.9708 55.2545 25.9263C55.2502 25.8609 55.2633 25.7956 55.293 25.7345C55.2945 25.729 55.2945 25.7233 55.293 25.7178C55.293 25.6539 55.188 25.5594 55.146 25.64C54.9891 25.9803 54.7515 26.2936 54.446 26.5629L54.4005 26.5935C54.4005 26.5546 54.4005 26.5185 54.4005 26.4795C54.3961 26.3927 54.3773 26.3067 54.3445 26.2238C54.3235 26.1821 54.2325 26.1181 54.1835 26.1737C53.9674 26.4884 53.7016 26.7799 53.3925 27.0411C53.3413 27.0756 53.2862 27.1063 53.228 27.1328C53.1755 27.1106 53.2595 26.8799 53.27 26.8548C53.3015 26.752 53.3435 26.6519 53.3855 26.5518C53.4291 26.4716 53.4608 26.3876 53.48 26.3016C53.48 26.2238 53.3295 26.1042 53.298 26.2099C53.298 26.2516 53.2385 26.3544 53.1895 26.4879C52.9876 26.7869 52.7571 27.0731 52.5 27.3441C52.2703 27.6383 51.9514 27.882 51.5725 28.053C51.4675 28.0975 51.268 28.1642 51.1525 28.0975C51.037 28.0308 51.051 27.9168 51.044 27.8195C51.0429 27.5987 51.0806 27.3788 51.156 27.1662C51.5289 27.0094 51.8748 26.8151 52.185 26.588C52.4904 26.3953 52.754 26.1643 52.9655 25.9041C53.0705 25.7512 53.1335 25.5038 52.878 25.4176C52.6995 25.3564 52.472 25.4565 52.3215 25.5232C52.1121 25.6164 51.9211 25.7334 51.7545 25.8707C51.4254 26.1677 51.186 26.5205 51.0545 26.9021C51.0335 26.9605 51.002 27.0383 50.974 27.1245C50.5708 27.2886 50.1136 27.3498 49.665 27.2996C49.6405 27.2996 49.63 27.3413 49.665 27.3441C50.0944 27.4173 50.5418 27.3833 50.946 27.2468C50.8305 27.6416 50.7675 28.1642 51.2295 28.2671C51.6915 28.3699 52.2515 27.9085 52.5 27.6416C52.6904 27.4422 52.8568 27.229 52.997 27.005C53.0098 26.9886 53.0238 26.9728 53.039 26.9577C53.039 27.1412 53.0845 27.2746 53.312 27.2357C53.5395 27.1968 53.746 26.9577 53.8755 26.8104C54.005 26.663 54.0995 26.5324 54.2255 26.4017C54.2465 26.5685 54.285 26.7548 54.481 26.7242C54.677 26.6936 54.831 26.4184 54.936 26.3072C55.041 26.196 55.0935 26.1126 55.16 26.0125C55.174 26.0307 55.1892 26.0484 55.2055 26.0653C55.37 26.2043 55.5555 26.0653 55.6745 25.943C55.825 25.7873 55.993 25.6205 56.1365 25.4426C56.1706 25.519 56.2409 25.5819 56.3325 25.6177C56.588 25.7123 56.826 25.5455 56.973 25.3981C57.1516 25.2045 57.3108 25 57.449 24.7865C57.4594 24.8269 57.4804 24.865 57.5105 24.8986C57.5407 24.9321 57.5793 24.9602 57.624 24.9811C57.7181 25.0189 57.8233 25.0359 57.9285 25.0305C58.0337 25.0252 58.1352 24.9975 58.2225 24.9505C58.282 24.9311 58.205 24.7949 58.121 24.8282ZM52.5595 25.6177C52.6785 25.5705 52.9095 25.4899 52.934 25.6483C52.9177 25.7514 52.8628 25.8482 52.7765 25.9263C52.5729 26.1421 52.338 26.3381 52.0765 26.5101C51.8092 26.7059 51.5198 26.8817 51.212 27.0355C51.3019 26.7384 51.4679 26.4591 51.6998 26.2151C51.9316 25.9712 52.2243 25.7678 52.5595 25.6177Z" fill="black"/>
</svg>
