<svg width="51" height="50" viewBox="0 0 51 50" fill="none" xmlns="http://www.w3.org/2000/svg">
<circle cx="25.667" cy="25" r="24.5" fill="#484848" stroke="#D4AF37"/>
<mask id="mask0_7311_19175" style="mask-type:alpha" maskUnits="userSpaceOnUse" x="4" y="3" width="44" height="44">
<rect x="4.23828" y="3.57143" width="42.8571" height="42.8571" fill="#D9D9D9"/>
</mask>
<g mask="url(#mask0_7311_19175)">
<path d="M21.6496 40.3499C20.2234 40.3499 18.9969 39.856 17.9701 38.8682C16.9433 37.8804 16.3785 36.6825 16.2755 35.2745C14.6386 35.025 13.2764 34.2765 12.1889 33.0289C11.1014 31.781 10.5576 30.3181 10.5576 28.6401C10.5576 28.0541 10.6338 27.475 10.7862 26.903C10.9383 26.331 11.1665 25.7939 11.471 25.2919C11.1094 24.7675 10.8381 24.2003 10.6572 23.5905C10.4762 22.9804 10.3857 22.3399 10.3857 21.6691C10.3857 19.956 10.9496 18.4746 12.0773 17.2249C13.2046 15.9752 14.6006 15.2484 16.2652 15.0445C16.2536 14.9987 16.2478 14.9529 16.2478 14.907V14.7526C16.3029 13.3148 16.8529 12.0992 17.8978 11.1057C18.943 10.1123 20.1936 9.61552 21.6496 9.61552C22.4692 9.61552 23.1996 9.77579 23.8407 10.0963C24.4817 10.4166 25.0907 10.8698 25.6674 11.4561C26.2374 10.8698 26.8418 10.4166 27.4808 10.0963C28.1195 9.77579 28.8543 9.61552 29.6853 9.61552C31.1252 9.61552 32.3643 10.1105 33.4027 11.1003C34.4408 12.0905 34.9874 13.2989 35.0424 14.7253V14.8798C35.0424 14.9256 35.0366 14.9715 35.025 15.0173C36.6896 15.2209 38.093 15.9495 39.2353 17.203C40.3779 18.4563 40.9491 19.945 40.9491 21.6691C40.9491 22.3399 40.8558 22.9804 40.6692 23.5905C40.4826 24.2003 40.2084 24.7675 39.8465 25.2919C40.1509 25.7934 40.3822 26.3301 40.5402 26.9021C40.6982 27.4744 40.7773 28.0538 40.7773 28.6401C40.7773 30.3478 40.2289 31.821 39.1322 33.0597C38.0357 34.2981 36.6633 35.0364 35.0148 35.2745C34.9118 36.6825 34.3543 37.8804 33.3424 38.8682C32.3305 39.856 31.1115 40.3499 29.6853 40.3499C28.8612 40.3499 28.128 40.1942 27.4857 39.8829C26.8435 39.5716 26.2374 39.1172 25.6674 38.5195C25.079 39.1172 24.4655 39.5716 23.8268 39.8829C23.1881 40.1942 22.4624 40.3499 21.6496 40.3499ZM27.0067 14.9727V34.9932C27.0067 35.7432 27.2664 36.3771 27.7857 36.895C28.3051 37.4128 28.9407 37.6718 29.6924 37.6718C30.4088 37.6718 31.0228 37.405 31.5344 36.8713C32.0463 36.338 32.3228 35.7164 32.3639 35.0066C31.613 34.8489 30.9198 34.5633 30.2844 34.1499C29.6493 33.7368 29.1005 33.2073 28.638 32.5615C28.4091 32.2481 28.3228 31.9143 28.379 31.5602C28.4353 31.206 28.6212 30.9184 28.9366 30.6972C29.2503 30.4681 29.5863 30.3817 29.9447 30.4383C30.3033 30.4945 30.5945 30.6804 30.8183 30.9959C31.1877 31.5331 31.6578 31.9444 32.2286 32.2298C32.7994 32.5152 33.4168 32.6579 34.0808 32.6579C35.2005 32.6579 36.15 32.2682 36.9295 31.4887C37.709 30.709 38.0987 29.7594 38.0987 28.6401C38.0987 28.4148 38.077 28.1896 38.0335 27.9646C37.9901 27.7396 37.9213 27.5184 37.8273 27.3008C37.3213 27.6442 36.7633 27.9075 36.1532 28.0905C35.543 28.2736 34.9096 28.3651 34.2527 28.3651C33.8732 28.3651 33.5551 28.2368 33.2982 27.9803C33.0417 27.7234 32.9134 27.4051 32.9134 27.0253C32.9134 26.6459 33.0417 26.3279 33.2982 26.0713C33.5551 25.8151 33.8732 25.687 34.2527 25.687C35.3721 25.687 36.3216 25.2971 37.1014 24.5173C37.8808 23.7378 38.2706 22.7884 38.2706 21.6691C38.2706 20.5673 37.8865 19.6325 37.1183 18.8646C36.3502 18.0968 35.4179 17.6922 34.3215 17.6508C34.0167 18.1981 33.6154 18.6755 33.1174 19.0829C32.6195 19.4904 32.0639 19.8131 31.4505 20.0512C31.1002 20.184 30.7582 20.173 30.4246 20.0182C30.091 19.8634 29.8686 19.609 29.7576 19.2548C29.643 18.9045 29.6567 18.5605 29.7987 18.2227C29.9407 17.8852 30.1924 17.6591 30.5541 17.5445C31.0921 17.3615 31.5283 17.0364 31.8625 16.5691C32.1968 16.1021 32.3639 15.567 32.3639 14.9637C32.3639 14.2185 32.1048 13.5873 31.5866 13.07C31.0688 12.5524 30.4347 12.2936 29.6844 12.2936C28.9341 12.2936 28.3002 12.5526 27.7826 13.0704C27.2654 13.5883 27.0067 14.2224 27.0067 14.9727ZM24.3282 34.9932V14.9727C24.3282 14.2224 24.0691 13.5883 23.5509 13.0704C23.0331 12.5526 22.399 12.2936 21.6487 12.2936C20.8984 12.2936 20.2645 12.5526 19.7469 13.0704C19.2296 13.5883 18.971 14.2224 18.971 14.9727C18.971 15.5518 19.1335 16.0795 19.4585 16.5557C19.7838 17.0319 20.2154 17.3615 20.7532 17.5445C21.1035 17.6591 21.3599 17.8823 21.5224 18.2142C21.6849 18.546 21.7099 18.8884 21.5974 19.2414C21.4625 19.5941 21.2264 19.8475 20.8889 20.0017C20.5514 20.1561 20.2017 20.167 19.8398 20.0343C19.2264 19.7962 18.6707 19.4762 18.1728 19.0745C17.6749 18.6727 17.2735 18.1981 16.9688 17.6508C15.9021 17.6922 14.9847 18.1026 14.2165 18.882C13.4484 19.6615 13.0643 20.5923 13.0643 21.6745C13.0643 22.7902 13.454 23.7378 14.2335 24.5173C15.0133 25.2971 15.9628 25.687 17.0822 25.687C17.4616 25.687 17.7798 25.8152 18.0366 26.0718C18.2932 26.3286 18.4215 26.6469 18.4215 27.0267C18.4215 27.4061 18.2932 27.7242 18.0366 27.9807C17.7798 28.2369 17.4616 28.3651 17.0822 28.3651C16.4253 28.3651 15.7918 28.2736 15.1817 28.0905C14.5716 27.9075 14.0136 27.6442 13.5076 27.3008C13.4136 27.5184 13.3448 27.7396 13.3014 27.9646C13.2579 28.1896 13.2362 28.4148 13.2362 28.6401C13.2362 29.7594 13.6259 30.709 14.4054 31.4887C15.1849 32.2682 16.1344 32.6579 17.254 32.6579C17.9213 32.6579 18.5386 32.5143 19.1058 32.2271C19.6731 31.9396 20.1433 31.5292 20.5165 30.9959C20.7404 30.6804 21.0316 30.4945 21.3902 30.4383C21.7485 30.3817 22.0846 30.4651 22.3982 30.6883C22.7119 30.9115 22.8974 31.2011 22.9545 31.557C23.0116 31.9133 22.9258 32.2481 22.6969 32.5615C22.2231 33.2073 21.6639 33.7414 21.0192 34.1637C20.3749 34.5861 19.6773 34.8762 18.9264 35.0343C18.9674 35.7441 19.2514 36.3611 19.7782 36.8852C20.3046 37.4096 20.9261 37.6718 21.6424 37.6718C22.3942 37.6718 23.0298 37.4128 23.5491 36.895C24.0685 36.3771 24.3282 35.7432 24.3282 34.9932Z" fill="#D4AF37"/>
</g>
</svg>
