<svg width="51" height="50" viewBox="0 0 51 50" fill="none" xmlns="http://www.w3.org/2000/svg">
<circle cx="25.75" cy="25" r="24.5" fill="#484848" stroke="#D4AF37"/>
<mask id="mask0_7311_19128" style="mask-type:alpha" maskUnits="userSpaceOnUse" x="6" y="5" width="39" height="39">
<rect x="6.70215" y="5.35715" width="38.0952" height="38.0952" fill="#D9D9D9"/>
</mask>
<g mask="url(#mask0_7311_19128)">
<path d="M27.3368 41.0714C25.6293 41.0714 24.2766 40.3434 23.2784 38.8873C22.2803 37.4312 21.7812 35.7783 21.7812 33.9286C21.7812 32.0788 22.2803 30.4259 23.2784 28.9698C24.2766 27.5138 25.6293 26.7857 27.3368 26.7857C29.0442 26.7857 30.3969 27.5138 31.3951 28.9698C32.3932 30.4259 32.8923 32.0788 32.8923 33.9286C32.8923 35.7783 32.3932 37.4312 31.3951 38.8873C30.3969 40.3434 29.0442 41.0714 27.3368 41.0714ZM13.8875 40.2655L11.6348 39.5421C12.4141 37.0857 12.9747 34.5909 13.3165 32.0575C13.6586 29.5239 13.8296 26.973 13.8296 24.4048C13.8296 21.8365 13.6586 19.2856 13.3165 16.752C12.9747 14.2187 12.4141 11.7238 11.6348 9.26746L13.8875 8.54405C14.7095 11.1184 15.3021 13.7273 15.6653 16.3706C16.0288 19.014 16.2106 21.6921 16.2106 24.4048C16.2106 27.1175 16.0288 29.7955 15.6653 32.4389C15.3021 35.0823 14.7095 37.6911 13.8875 40.2655ZM37.5963 40.2655C36.774 37.6911 36.1813 35.0823 35.8181 32.4389C35.4549 29.7955 35.2733 27.1175 35.2733 24.4048C35.2733 21.6921 35.4549 19.014 35.8181 16.3706C36.1813 13.7273 36.774 11.1184 37.5963 8.54405L39.8491 9.26746C39.0694 11.7238 38.5087 14.2187 38.1669 16.752C37.8251 19.2856 37.6542 21.8365 37.6542 24.4048C37.6542 26.973 37.8251 29.5239 38.1669 32.0575C38.5087 34.5909 39.0694 37.0857 39.8491 39.5421L37.5963 40.2655ZM27.3368 38.6905C28.395 38.6905 29.1886 38.1944 29.7177 37.2024C30.2468 36.2103 30.5114 35.119 30.5114 33.9286C30.5114 32.7381 30.2468 31.6468 29.7177 30.6548C29.1886 29.6627 28.395 29.1667 27.3368 29.1667C26.2785 29.1667 25.4849 29.6627 24.9558 30.6548C24.4267 31.6468 24.1621 32.7381 24.1621 33.9286C24.1621 35.119 24.4267 36.2103 24.9558 37.2024C25.4849 38.1944 26.2785 38.6905 27.3368 38.6905ZM26.2744 36.6024C26.4618 36.7735 26.6811 36.8565 26.9324 36.8512C27.1837 36.8462 27.408 36.75 27.6054 36.5627C27.9554 36.223 28.2219 35.8237 28.405 35.3647C28.5883 34.906 28.68 34.4272 28.68 33.9286C28.68 33.4299 28.5899 32.9537 28.4098 32.5C28.2296 32.0463 27.9696 31.6444 27.6296 31.2944C27.4587 31.1071 27.2461 31.011 26.9919 31.006C26.7374 31.0007 26.5115 31.0836 26.3141 31.2548C26.1168 31.4257 26.014 31.6448 26.0058 31.9123C25.9976 32.18 26.0791 32.4126 26.2502 32.6099C26.3315 32.6914 26.4412 32.8548 26.5796 33.1C26.718 33.345 26.7871 33.6212 26.7871 33.9286C26.7871 34.236 26.718 34.5122 26.5796 34.7571C26.4412 35.0024 26.3315 35.1657 26.2502 35.2472C26.0526 35.4446 25.9579 35.6771 25.9661 35.9448C25.9743 36.2123 26.0771 36.4315 26.2744 36.6024ZM24.1621 22.0238C22.4547 22.0238 21.102 21.2958 20.1038 19.8397C19.1057 18.3836 18.6066 16.7307 18.6066 14.881C18.6066 13.0312 19.1057 11.3783 20.1038 9.92222C21.102 8.46614 22.4547 7.7381 24.1621 7.7381C25.8696 7.7381 27.2223 8.46614 28.2205 9.92222C29.2186 11.3783 29.7177 13.0312 29.7177 14.881C29.7177 16.7307 29.2186 18.3836 28.2205 19.8397C27.2223 21.2958 25.8696 22.0238 24.1621 22.0238ZM24.1621 19.6429C25.2203 19.6429 26.014 19.1468 26.5431 18.1548C27.0722 17.1627 27.3368 16.0714 27.3368 14.881C27.3368 13.6905 27.0722 12.5992 26.5431 11.6071C26.014 10.6151 25.2203 10.1191 24.1621 10.1191C23.1039 10.1191 22.3103 10.6151 21.7812 11.6071C21.2521 12.5992 20.9875 13.6905 20.9875 14.881C20.9875 16.0714 21.2521 17.1627 21.7812 18.1548C22.3103 19.1468 23.1039 19.6429 24.1621 19.6429ZM25.1848 17.5548C25.3821 17.3839 25.4849 17.1647 25.4931 16.8972C25.5013 16.6295 25.4198 16.397 25.2487 16.1996C25.086 16.0205 24.9558 15.8165 24.8582 15.5877C24.7606 15.3586 24.7118 15.123 24.7118 14.881C24.7118 14.6389 24.7606 14.4033 24.8582 14.1742C24.9558 13.9454 25.086 13.7414 25.2487 13.5623C25.4299 13.365 25.5205 13.139 25.5205 12.8845C25.5205 12.6303 25.4218 12.4045 25.2244 12.2071C25.0371 12.036 24.8153 11.9504 24.559 11.9504C24.3026 11.9504 24.0808 12.044 23.8935 12.2314C23.5435 12.5814 23.277 12.9858 23.0939 13.4448C22.9106 13.9036 22.8189 14.3823 22.8189 14.881C22.8189 15.3796 22.9065 15.8558 23.0816 16.3095C23.2567 16.7632 23.5193 17.1651 23.8693 17.5151C24.0563 17.7024 24.2755 17.7985 24.5268 17.8036C24.7782 17.8089 24.9975 17.7259 25.1848 17.5548Z" fill="#D4AF37"/>
</g>
</svg>
