<svg width="51" height="50" viewBox="0 0 51 50" fill="none" xmlns="http://www.w3.org/2000/svg">
<circle cx="25.5" cy="25" r="24.5" fill="#484848" stroke="#D4AF37"/>
<path d="M18.1589 11.3095C19.5446 11.3095 20.8541 11.6336 22.0875 12.2817C23.3208 12.9299 24.3922 13.8594 25.3018 15.0702C26.2113 13.8594 27.2827 12.9299 28.5161 12.2817C29.7494 11.6336 31.0589 11.3095 32.4446 11.3095C34.6973 11.3095 36.5832 12.069 38.1026 13.5881C39.6216 15.1074 40.3811 16.9934 40.3811 19.246C40.3811 19.3987 40.3745 19.5462 40.3613 19.6885C40.3481 19.8311 40.3363 19.9787 40.326 20.1314H37.9454C37.9719 19.9787 37.9876 19.8311 37.9926 19.6885C37.9977 19.5462 38.0002 19.3987 38.0002 19.246C38.0002 17.6587 37.4711 16.336 36.4129 15.2778C35.3547 14.2196 34.0319 13.6905 32.4446 13.6905C31.1912 13.6905 30.0327 14.046 28.9692 14.7571C27.906 15.4685 27.0641 16.4581 26.4434 17.7258H24.1601C23.5291 16.4478 22.6846 15.4557 21.6264 14.7496C20.5682 14.0435 19.4124 13.6905 18.1589 13.6905C16.5817 13.6905 15.2614 14.2196 14.1982 15.2778C13.135 16.336 12.6034 17.6587 12.6034 19.246C12.6034 19.3987 12.6059 19.5462 12.6109 19.6885C12.6159 19.8311 12.6317 19.9787 12.6581 20.1314H10.2776C10.2672 19.9787 10.2555 19.8311 10.2422 19.6885C10.229 19.5462 10.2224 19.3987 10.2224 19.246C10.2224 16.9934 10.9819 15.1074 12.501 13.5881C14.0203 12.069 15.9063 11.3095 18.1589 11.3095ZM15.7049 29.4718H19.0351C19.8817 30.3023 20.8178 31.2012 21.8434 32.1687C22.8691 33.1364 24.0219 34.1992 25.3018 35.3572C26.5817 34.1992 27.7344 33.1364 28.7601 32.1687C29.7858 31.2012 30.7219 30.3023 31.5684 29.4718H34.9232C33.9483 30.5118 32.8163 31.6443 31.5272 32.8695C30.238 34.0943 28.7469 35.4709 27.0538 36.9992L25.3018 38.5742L23.5498 36.9992C21.8567 35.4709 20.3695 34.0943 19.0883 32.8695C17.8073 31.6443 16.6795 30.5118 15.7049 29.4718ZM23.7938 30.754C24.0462 30.754 24.2625 30.6802 24.4426 30.5325C24.6225 30.3852 24.7552 30.1934 24.8407 29.9571L27.243 22.7258L28.9982 25.354C29.1305 25.5452 29.3004 25.6995 29.5081 25.8167C29.7158 25.9336 29.9417 25.9921 30.1859 25.9921H42.3652V23.6111H30.7168L27.8871 19.3956C27.7691 19.2187 27.615 19.0858 27.4248 18.9972C27.2346 18.9089 27.0295 18.8647 26.8097 18.8647C26.5573 18.8647 26.3385 18.9384 26.1534 19.0857C25.9682 19.2333 25.838 19.4251 25.7629 19.6611L23.3605 26.8833L21.599 24.2492C21.4667 24.0579 21.2969 23.9037 21.0895 23.7865C20.8818 23.6696 20.6559 23.6111 20.4117 23.6111H8.23828V25.9921H19.8561L22.701 30.2226C22.819 30.4099 22.9757 30.5454 23.1712 30.629C23.3664 30.7123 23.574 30.754 23.7938 30.754Z" fill="#D4AF37"/>
</svg>
