<svg width="51" height="50" viewBox="0 0 51 50" fill="none" xmlns="http://www.w3.org/2000/svg">
<circle cx="25.25" cy="25" r="24.5" fill="#484848" stroke="#D4AF37"/>
<mask id="mask0_7311_19103" style="mask-type:alpha" maskUnits="userSpaceOnUse" x="6" y="5" width="39" height="40">
<rect x="6.20215" y="5.95239" width="38.0952" height="38.0952" fill="#D9D9D9"/>
</mask>
<g mask="url(#mask0_7311_19103)">
<path d="M21.1353 39.1601L20.3052 37.5149C20.0771 37.0959 19.9154 36.6634 19.8199 36.2177C19.7241 35.7722 19.6762 35.3133 19.6762 34.8411C19.6762 34.2631 19.7572 33.6943 19.9191 33.1347C20.0807 32.5752 20.3365 32.0513 20.6865 31.5629C20.9085 31.2412 21.0799 30.8947 21.2008 30.5232C21.322 30.1518 21.3826 29.7657 21.3826 29.3649C21.3826 28.9213 21.3007 28.499 21.1369 28.0982C20.9732 27.6972 20.8017 27.2963 20.6226 26.8955C20.3785 26.4132 20.1729 25.9227 20.006 25.424C19.839 24.9256 19.7556 24.4138 19.7556 23.8887V18.4677C19.7556 17.7145 19.5089 17.0632 19.0155 16.5137C18.5219 15.9645 17.9088 15.6899 17.1762 15.6899C16.5596 15.6899 16.0142 15.8776 15.5401 16.253C15.066 16.6284 14.7729 17.101 14.6607 17.6709C15.5502 17.9436 16.2859 18.4604 16.8679 19.2213C17.4499 19.9824 17.7409 20.8504 17.7409 21.8252C17.7409 23.0361 17.316 24.0662 16.4663 24.9157C15.6168 25.7654 14.5867 26.1903 13.3758 26.1903C12.165 26.1903 11.1348 25.7654 10.2853 24.9157C9.43561 24.0662 9.01074 23.0361 9.01074 21.8252C9.01074 20.8078 9.32013 19.9119 9.93892 19.1375C10.5574 18.3632 11.3379 17.858 12.2802 17.622C12.4021 16.3869 12.9322 15.3592 13.8703 14.5391C14.8084 13.719 15.9103 13.309 17.1762 13.309C17.3207 13.309 17.4626 13.3156 17.602 13.3288C17.7414 13.342 17.8834 13.3649 18.0278 13.3974C19.1207 12.789 20.2781 12.3575 21.5 12.103C22.722 11.8488 23.972 11.7216 25.25 11.7216C26.522 11.7216 27.7689 11.8488 28.9909 12.103C30.2129 12.3575 31.3703 12.789 32.4631 13.3974C32.5975 13.3649 32.7369 13.342 32.8814 13.3288C33.0258 13.3156 33.1651 13.309 33.2992 13.309C34.5815 13.309 35.6917 13.719 36.6298 14.5391C37.5679 15.3592 38.0979 16.3869 38.2199 17.622C39.1622 17.8683 39.9401 18.376 40.5536 19.1451C41.1671 19.9144 41.4738 20.8078 41.4738 21.8252C41.4738 23.0361 41.0491 24.0662 40.1996 24.9157C39.3499 25.7654 38.3196 26.1903 37.1088 26.1903C35.8982 26.1903 34.868 25.7654 34.0183 24.9157C33.1688 24.0662 32.7441 23.0361 32.7441 21.8252C32.7441 20.8504 33.0351 19.9798 33.6171 19.2137C34.1991 18.4476 34.9398 17.9333 35.8393 17.6709C35.7171 17.101 35.4215 16.6284 34.9524 16.253C34.4834 15.8776 33.9323 15.6899 33.2992 15.6899C32.5667 15.6899 31.9578 15.9645 31.4726 16.5137C30.9872 17.0632 30.7445 17.7145 30.7445 18.4677V23.8887C30.7445 24.4138 30.6569 24.9256 30.4818 25.424C30.3069 25.9227 30.1054 26.4132 29.8774 26.8955C29.6822 27.2963 29.5066 27.6972 29.3508 28.0982C29.1953 28.499 29.1175 28.9213 29.1175 29.3649C29.1175 29.7657 29.1754 30.1543 29.2913 30.5308C29.4074 30.9075 29.5865 31.2566 29.8286 31.578C30.1521 32.0767 30.399 32.6006 30.5691 33.1498C30.7389 33.6993 30.8238 34.2631 30.8238 34.8411C30.8238 35.3133 30.7693 35.7722 30.6603 36.2177C30.5516 36.6634 30.3965 37.0959 30.1949 37.5149L29.3647 39.1756L27.2099 38.0982L28.0401 36.453C28.1824 36.2107 28.2852 35.9552 28.3484 35.6867C28.4114 35.4179 28.4429 35.1361 28.4429 34.8411C28.4429 34.4829 28.3849 34.1406 28.2691 33.8141C28.1529 33.4874 28.0053 33.1714 27.8262 32.8661C27.4662 32.3674 27.1945 31.821 27.0111 31.2268C26.8281 30.6326 26.7365 30.0252 26.7365 29.4046C26.7365 28.8265 26.8225 28.2792 26.9945 27.7625C27.1664 27.2456 27.3827 26.7378 27.6433 26.2391C27.8224 25.8484 27.9872 25.4592 28.1377 25.0716C28.2883 24.6838 28.3635 24.2895 28.3635 23.8887V18.4677C28.3635 17.7513 28.4983 17.0781 28.7679 16.4482C29.0377 15.8183 29.4138 15.2857 29.8961 14.8502C29.1572 14.5775 28.3986 14.3846 27.6203 14.2716C26.842 14.159 26.0519 14.1026 25.25 14.1026C24.4482 14.1026 23.6556 14.159 22.8722 14.2716C22.0887 14.3846 21.3326 14.5775 20.604 14.8502C21.0863 15.2857 21.4623 15.8183 21.7322 16.4482C22.0017 17.0781 22.1365 17.7513 22.1365 18.4677V23.8887C22.1365 24.2998 22.2077 24.7033 22.35 25.099C22.4926 25.4948 22.6615 25.88 22.8568 26.2546C23.101 26.753 23.3131 27.2607 23.4933 27.7776C23.6734 28.2945 23.7635 28.8369 23.7635 29.4046C23.7635 30.0252 23.672 30.6287 23.4889 31.2149C23.3056 31.8009 23.0389 32.3513 22.6889 32.8661C22.4834 33.1714 22.3267 33.4874 22.2191 33.8141C22.1111 34.1406 22.0572 34.4829 22.0572 34.8411C22.0572 35.1361 22.0913 35.4179 22.1596 35.6867C22.2275 35.9552 22.3277 36.2107 22.4599 36.453L23.275 38.0982L21.1353 39.1601ZM13.3758 23.8093C13.9274 23.8093 14.3959 23.6165 14.7814 23.2308C15.1671 22.8453 15.3599 22.3768 15.3599 21.8252C15.3599 21.2736 15.1671 20.8051 14.7814 20.4197C14.3959 20.034 13.9274 19.8411 13.3758 19.8411C12.8242 19.8411 12.3557 20.034 11.9703 20.4197C11.5846 20.8051 11.3917 21.2736 11.3917 21.8252C11.3917 22.3768 11.5846 22.8453 11.9703 23.2308C12.3557 23.6165 12.8242 23.8093 13.3758 23.8093ZM37.1088 23.8093C37.6603 23.8093 38.129 23.6165 38.5147 23.2308C38.9004 22.8453 39.0933 22.3768 39.0933 21.8252C39.0933 21.2736 38.9004 20.8051 38.5147 20.4197C38.129 20.034 37.6603 19.8411 37.1088 19.8411C36.5574 19.8411 36.0889 20.034 35.7032 20.4197C35.3175 20.8051 35.1246 21.2736 35.1246 21.8252C35.1246 22.3768 35.3175 22.8453 35.7032 23.2308C36.0889 23.6165 36.5574 23.8093 37.1088 23.8093Z" fill="#D4AF37"/>
</g>
</svg>
