<svg width="51" height="50" viewBox="0 0 51 50" fill="none" xmlns="http://www.w3.org/2000/svg">
<circle cx="25.75" cy="25" r="24.5" fill="#484848" stroke="#D4AF37"/>
<mask id="mask0_7311_19110" style="mask-type:alpha" maskUnits="userSpaceOnUse" x="4" y="3" width="39" height="39">
<rect x="4.32129" y="3.57144" width="38.0952" height="38.0952" fill="#D9D9D9"/>
</mask>
<g mask="url(#mask0_7311_19110)">
<path d="M9.86133 38.0952V28.9683C9.86133 27.7574 10.2861 26.7272 11.1355 25.8778C11.9853 25.028 13.0156 24.6032 14.2264 24.6032H17.401C18.8357 24.6032 20.0541 24.1021 21.0562 23.1C22.0586 22.0976 22.5597 20.8791 22.5597 19.4444C22.5597 18.8929 22.3669 18.4243 21.9812 18.0389C21.5955 17.6532 21.1269 17.4603 20.5756 17.4603C19.8042 17.4603 19.1484 17.1902 18.6082 16.65C18.0679 16.1095 17.7978 15.4537 17.7978 14.6825V7.14285H20.1939V14.6825C20.1939 14.7944 20.2295 14.8886 20.3006 14.9651C20.372 15.0413 20.4637 15.0794 20.5756 15.0794C21.7865 15.0794 22.8166 15.5042 23.6661 16.354C24.5158 17.2034 24.9407 18.2336 24.9407 19.4444C24.9407 21.5283 24.205 23.3058 22.7336 24.777C21.2624 26.2484 19.4849 26.9841 17.401 26.9841H14.2264C13.6748 26.9841 13.2062 27.177 12.8205 27.5627C12.435 27.9481 12.2423 28.4167 12.2423 28.9683V38.0952H9.86133ZM36.8605 23.2234C36.5124 22.912 36.1425 22.6398 35.751 22.4067C35.3592 22.1739 34.9354 21.9669 34.4796 21.7857V21.0317C34.4796 18.7545 33.7108 16.7963 32.1732 15.1571C30.6359 13.518 28.744 12.6984 26.4974 12.6984C25.6345 12.6984 24.8973 12.3901 24.2859 11.7734C23.6743 11.1567 23.3685 10.4221 23.3685 9.56944V7.14285H25.7494V9.56944L26.4974 10.3175C29.4197 10.3175 31.8773 11.3649 33.8705 13.4599C35.8638 15.5552 36.8605 18.0791 36.8605 21.0317V23.2234ZM15.432 38.0952V35.3175C15.432 34.1066 15.8568 33.0765 16.7066 32.227C17.556 31.3772 18.5862 30.9524 19.797 30.9524H21.8879C21.9083 31.3757 21.9571 31.7832 22.0343 32.175C22.1119 32.5665 22.2228 32.9526 22.3673 33.3333H19.797C19.2455 33.3333 18.7769 33.5262 18.3915 33.9119C18.0058 34.2974 17.8129 34.7659 17.8129 35.3175V38.0952H15.432ZM30.9082 33.4095C31.8015 33.4095 32.5693 33.0885 33.2113 32.4464C33.8534 31.8044 34.1744 31.0366 34.1744 30.1433C34.1744 29.2501 33.8534 28.4825 33.2113 27.8405C32.5693 27.1984 31.8015 26.8774 30.9082 26.8774C30.0148 26.8774 29.247 27.1984 28.605 27.8405C27.9629 28.4825 27.6419 29.2501 27.6419 30.1433C27.6419 31.0366 27.9629 31.8044 28.605 32.4464C29.247 33.0885 30.0148 33.4095 30.9082 33.4095ZM37.8494 38.8734L33.8935 34.9329C33.458 35.2136 32.9935 35.4267 32.4998 35.5722C32.0064 35.7177 31.4759 35.7905 30.9082 35.7905C29.3452 35.7905 28.0133 35.2401 26.9125 34.1393C25.8115 33.0382 25.2609 31.7062 25.2609 30.1433C25.2609 28.5806 25.8115 27.2487 26.9125 26.1476C28.0133 25.0468 29.3452 24.4964 30.9082 24.4964C32.4711 24.4964 33.803 25.0468 34.9038 26.1476C36.0049 27.2487 36.5554 28.5806 36.5554 30.1433C36.5554 30.7316 36.4683 31.2893 36.2943 31.8163C36.1202 32.3433 35.8775 32.8296 35.5661 33.2754L39.507 37.2159L37.8494 38.8734Z" fill="#D4AF37"/>
</g>
</svg>
