<svg width="51" height="50" viewBox="0 0 51 50" fill="none" xmlns="http://www.w3.org/2000/svg">
<circle cx="25.833" cy="25" r="24.5" fill="#484848" stroke="#D4AF37"/>
<mask id="mask0_7311_19184" style="mask-type:alpha" maskUnits="userSpaceOnUse" x="6" y="3" width="39" height="39">
<rect x="6.78516" y="3.57143" width="38.0952" height="38.0952" fill="#D9D9D9"/>
</mask>
<g mask="url(#mask0_7311_19184)">
<path d="M10.7529 36.1114V23.1118C10.7529 22.3176 11.0339 21.6401 11.5958 21.0792C12.1577 20.5186 12.8332 20.2383 13.6224 20.2383H21.4672V22.6193C21.4672 23.8317 21.8914 24.8624 22.7398 25.7114C23.5882 26.56 24.6184 26.9844 25.8303 26.9844C27.0425 26.9844 28.0733 26.56 28.9228 25.7114C29.7725 24.8624 30.1974 23.8317 30.1974 22.6193V20.2383H38.0422C38.8314 20.2383 39.5069 20.5193 40.0688 21.0812C40.6307 21.6431 40.9117 22.3186 40.9117 23.1078V36.1114H10.7529ZM13.1339 33.7304H38.5307V23.1078C38.5307 22.9652 38.4849 22.8481 38.3934 22.7566C38.3019 22.6651 38.1848 22.6193 38.0422 22.6193H32.5783C32.5783 24.4894 31.9205 26.0812 30.6049 27.3947C29.2896 28.7085 27.6987 29.3653 25.8323 29.3653C23.9659 29.3653 22.375 28.7075 21.0597 27.3919C19.7441 26.0766 19.0863 24.4857 19.0863 22.6193H13.6224C13.4798 22.6193 13.3627 22.6651 13.2712 22.7566C13.1796 22.8481 13.1339 22.9652 13.1339 23.1078V33.7304ZM25.8319 23.8098C25.4943 23.8098 25.2117 23.6956 24.9839 23.4673C24.7558 23.2393 24.6418 22.9566 24.6418 22.6193C24.6418 19.8013 24.9648 17.0221 25.6109 14.2816C26.2572 11.5414 27.6557 9.26361 29.8065 7.44826C30.0692 7.23874 30.3587 7.14615 30.6751 7.17049C30.9915 7.19509 31.2597 7.33609 31.4795 7.5935C31.6991 7.85091 31.7942 8.14033 31.7648 8.46176C31.7352 8.78318 31.5892 9.04879 31.3267 9.25858C29.4341 10.8602 28.2437 12.8649 27.7553 15.2729C27.2669 17.6811 27.0228 20.1299 27.0228 22.6193C27.0228 22.9566 26.9086 23.2393 26.6803 23.4673C26.452 23.6956 26.1692 23.8098 25.8319 23.8098ZM15.9089 28.1137C16.2343 28.1137 16.5044 28.0074 16.7192 27.7947C16.9337 27.5817 17.041 27.3126 17.041 26.9872C17.041 26.6618 16.9347 26.3917 16.722 26.1768C16.509 25.9623 16.2398 25.855 15.9144 25.855C15.589 25.855 15.3189 25.9614 15.1041 26.1741C14.8896 26.387 14.7823 26.6562 14.7823 26.9816C14.7823 27.307 14.8886 27.5771 15.1013 27.7919C15.3143 28.0065 15.5835 28.1137 15.9089 28.1137ZM17.4962 32.082C17.8216 32.082 18.0917 31.9756 18.3065 31.7629C18.5211 31.55 18.6283 31.2808 18.6283 30.9554C18.6283 30.63 18.522 30.3599 18.3093 30.1451C18.0963 29.9305 17.8271 29.8233 17.5017 29.8233C17.1763 29.8233 16.9062 29.9296 16.6914 30.1423C16.4769 30.3553 16.3696 30.6245 16.3696 30.9499C16.3696 31.2753 16.4759 31.5454 16.6886 31.7602C16.9016 31.9747 17.1708 32.082 17.4962 32.082ZM35.7501 28.1137C36.0755 28.1137 36.3456 28.0074 36.5605 27.7947C36.775 27.5817 36.8823 27.3126 36.8823 26.9872C36.8823 26.6618 36.7759 26.3917 36.5632 26.1768C36.3503 25.9623 36.0811 25.855 35.7557 25.855C35.4303 25.855 35.1602 25.9614 34.9454 26.1741C34.7308 26.387 34.6236 26.6562 34.6236 26.9816C34.6236 27.307 34.7299 27.5771 34.9426 27.7919C35.1556 28.0065 35.4247 28.1137 35.7501 28.1137Z" fill="#D4AF37"/>
</g>
</svg>
