<svg width="51" height="50" viewBox="0 0 51 50" fill="none" xmlns="http://www.w3.org/2000/svg">
<circle cx="25.25" cy="25" r="24.5" fill="#484848" stroke="#D4AF37"/>
<mask id="mask0_7311_19119" style="mask-type:alpha" maskUnits="userSpaceOnUse" x="6" y="3" width="39" height="39">
<rect x="6.20215" y="3.57144" width="38.0952" height="38.0952" fill="#D9D9D9"/>
</mask>
<g mask="url(#mask0_7311_19119)">
<path d="M21.1292 36.2634V29.3312C20.8239 29.5286 20.5101 29.6752 20.1879 29.7709C19.8657 29.8664 19.518 29.9142 19.1447 29.9142C16.6621 29.9142 14.5713 29.0214 12.8721 27.236C11.1728 25.4503 10.3232 23.3008 10.3232 20.7876V18.1011C10.3232 15.5878 11.1728 13.4384 12.8721 11.6527C14.5713 9.86721 16.6621 8.97449 19.1447 8.97449C20.3574 8.97449 21.3881 9.39856 22.2367 10.2467C23.0854 11.0951 23.5098 12.1254 23.5098 13.3376C23.5098 14.5495 23.0854 15.5803 22.2367 16.43C21.3881 17.2795 20.3574 17.7043 19.1447 17.7043H16.3673V15.3237H19.1447C19.6963 15.3237 20.1649 15.1308 20.5506 14.7451C20.9363 14.3594 21.1292 13.8908 21.1292 13.3392C21.1292 12.7878 20.9363 12.3193 20.5506 11.9336C20.1649 11.5479 19.6963 11.355 19.1447 11.355C17.3378 11.355 15.8127 12.02 14.5693 13.3499C13.3259 14.6798 12.7042 16.2635 12.7042 18.1011V20.7876C12.7042 22.6251 13.3259 24.2089 14.5693 25.5388C15.8127 26.8687 17.3378 27.5336 19.1447 27.5336C19.6963 27.5336 20.1649 27.3408 20.5506 26.955C20.9363 26.5693 21.1292 26.1008 21.1292 25.5495C21.1292 24.9979 20.9363 24.5293 20.5506 24.1435C20.1649 23.7578 19.6963 23.565 19.1447 23.565H16.3673V21.1844H19.1447C20.3574 21.1844 21.3881 21.6087 22.2367 22.4574C23.0854 23.3061 23.5098 24.3368 23.5098 25.5495V36.2634H21.1292ZM26.9899 36.2634V25.5495C26.9899 24.3368 27.4142 23.3061 28.2629 22.4574C29.1116 21.6087 30.1423 21.1844 31.355 21.1844H34.1324V23.565H31.355C30.8034 23.565 30.3347 23.7578 29.949 24.1435C29.5633 24.5293 29.3705 24.9979 29.3705 25.5495C29.3705 26.1008 29.5633 26.5693 29.949 26.955C30.3347 27.3408 30.8034 27.5336 31.355 27.5336C33.1619 27.5336 34.687 26.8687 35.9304 25.5388C37.1738 24.2089 37.7955 22.6251 37.7955 20.7876V18.1011C37.7955 16.2635 37.1738 14.6798 35.9304 13.3499C34.687 12.02 33.1619 11.355 31.355 11.355C30.8034 11.355 30.3347 11.5479 29.949 11.9336C29.5633 12.3193 29.3705 12.7878 29.3705 13.3392C29.3705 13.8908 29.5633 14.3594 29.949 14.7451C30.3347 15.1308 30.8034 15.3237 31.355 15.3237H34.1324V17.7043H31.355C30.1423 17.7043 29.1116 17.28 28.2629 16.4316C27.4142 15.5832 26.9899 14.5531 26.9899 13.3412C26.9899 12.1293 27.4142 11.0984 28.2629 10.2487C29.1116 9.39922 30.1423 8.97449 31.355 8.97449C33.8375 8.97449 35.9284 9.86721 37.6276 11.6527C39.3268 13.4384 40.1764 15.5878 40.1764 18.1011V20.7876C40.1764 23.3008 39.3268 25.4503 37.6276 27.236C35.9284 29.0214 33.8375 29.9142 31.355 29.9142C30.9817 29.9142 30.634 29.8664 30.3117 29.7709C29.9895 29.6752 29.6758 29.5286 29.3705 29.3312V36.2634H26.9899Z" fill="#D4AF37"/>
</g>
</svg>
