<svg width="50" height="50" viewBox="0 0 50 50" fill="none" xmlns="http://www.w3.org/2000/svg">
<circle cx="25" cy="25" r="24.5" fill="#484848" stroke="#D4AF37"/>
<mask id="mask0_7311_19193" style="mask-type:alpha" maskUnits="userSpaceOnUse" x="5" y="5" width="40" height="39">
<rect x="5.95215" y="5.35715" width="38.0952" height="38.0952" fill="#D9D9D9"/>
</mask>
<g mask="url(#mask0_7311_19193)">
<path d="M32.7832 9.5238C34.3157 9.53412 35.6247 10.0795 36.7102 11.1599C37.7959 12.2406 38.3387 13.5471 38.3387 15.0794C38.3387 15.35 38.3214 15.7198 38.2867 16.1889C38.2523 16.6579 38.1955 17.2049 38.1161 17.8298L35.9181 33.8218C35.8165 34.6337 35.4518 35.291 34.824 35.7936C34.1963 36.2963 33.4763 36.5476 32.6641 36.5476C32.1475 36.5476 31.6795 36.423 31.2602 36.1738C30.8408 35.9243 30.4848 35.5971 30.1919 35.1921L25.7169 28.8948C25.6333 28.7686 25.527 28.673 25.3979 28.6079C25.2685 28.5429 25.1225 28.5103 24.9598 28.5103C24.8132 28.5103 24.5608 28.6649 24.2026 28.9742L19.8467 35.073C19.5274 35.5106 19.1448 35.8657 18.699 36.1385C18.2533 36.4112 17.7721 36.5476 17.2554 36.5476C16.4432 36.5476 15.7299 36.2897 15.1153 35.7738C14.5008 35.2579 14.1427 34.594 14.0411 33.7821L11.8828 17.8298C11.8034 17.2049 11.7465 16.6579 11.7121 16.1889C11.6775 15.7198 11.6602 15.35 11.6602 15.0794C11.6602 13.5471 12.203 12.2381 13.2887 11.1524C14.3742 10.0667 15.6832 9.5238 17.2157 9.5238C18.0763 9.5238 18.7859 9.64947 19.3447 9.90079C19.9034 10.1521 20.4473 10.4233 20.9764 10.7143C21.5055 11.0053 22.0752 11.2764 22.6856 11.5278C23.2961 11.7791 24.0674 11.9048 24.9994 11.9048C25.9418 11.9048 26.7206 11.7791 27.3359 11.5278C27.9516 11.2764 28.5239 11.0053 29.053 10.7143C29.5821 10.4233 30.1275 10.1521 30.6891 9.90079C31.251 9.64947 31.949 9.5238 32.7832 9.5238ZM32.7832 11.9048C32.1747 11.9048 31.639 12.0304 31.176 12.2817C30.7131 12.5331 30.209 12.8042 29.6637 13.0952C29.1182 13.3862 28.4853 13.6574 27.7649 13.9087C27.0445 14.16 26.1227 14.2857 24.9994 14.2857C23.8965 14.2857 22.9849 14.16 22.2645 13.9087C21.5441 13.6574 20.9112 13.3862 20.3657 13.0952C19.8205 12.8042 19.3112 12.5331 18.8379 12.2817C18.3649 12.0304 17.8242 11.9048 17.2157 11.9048C16.3427 11.9048 15.5953 12.2156 14.9736 12.8373C14.352 13.459 14.0411 14.2063 14.0411 15.0794C14.0411 15.291 14.0543 15.5952 14.0808 15.9921C14.1072 16.3889 14.1602 16.8518 14.2395 17.3809L16.4221 33.4524C16.4485 33.664 16.5411 33.8294 16.6998 33.9484C16.8586 34.0675 17.0438 34.127 17.2554 34.127C17.4181 34.127 17.56 34.0776 17.6812 33.979C17.8021 33.8803 17.9043 33.7627 17.9879 33.6262L22.2399 27.6313C22.5595 27.1835 22.9594 26.8212 23.4395 26.5444C23.9199 26.2677 24.4399 26.1294 24.9994 26.1294C25.5489 26.1294 26.0662 26.2677 26.5514 26.5444C27.0369 26.8212 27.4394 27.1835 27.759 27.6313L32.0752 33.7452C32.1586 33.8553 32.2476 33.953 32.3423 34.0385C32.4367 34.1239 32.5572 34.1667 32.7038 34.1667C32.9154 34.1667 33.1072 34.1071 33.2792 33.9881C33.4512 33.869 33.5504 33.7037 33.5768 33.4921L35.7594 17.3809C35.8387 16.8518 35.8916 16.3889 35.9181 15.9921C35.9445 15.5952 35.9578 15.291 35.9578 15.0794C35.9578 14.2063 35.6469 13.459 35.0252 12.8373C34.4035 12.2156 33.6562 11.9048 32.7832 11.9048Z" fill="#D4AF37"/>
</g>
</svg>
