<svg width="26" height="24" viewBox="0 0 26 24" fill="none" xmlns="http://www.w3.org/2000/svg">
<path d="M25.3686 5.19129L16.1377 0.114305C16.0014 0.0393193 15.8483 0 15.6928 0C15.5372 0 15.3841 0.0393193 15.2478 0.114305L6.01694 5.19129C5.87221 5.27098 5.75152 5.38805 5.66746 5.53028C5.5834 5.67252 5.53906 5.83471 5.53906 5.99992C5.53906 6.16514 5.5834 6.32732 5.66746 6.46956C5.75152 6.61179 5.87221 6.72886 6.01694 6.80855L14.7697 11.6225V21.517L11.9672 19.9755L11.0773 21.5918L15.2478 23.8857C15.3841 23.9607 15.5372 24 15.6928 24C15.8483 24 16.0014 23.9607 16.1377 23.8857L25.3686 18.8087C25.5134 18.7291 25.6341 18.612 25.7182 18.4698C25.8023 18.3275 25.8467 18.1653 25.8467 18.0001V5.99992C25.8467 5.83468 25.8023 5.67247 25.7182 5.53023C25.6341 5.388 25.5134 5.27094 25.3686 5.19129ZM15.6928 1.9771L23.0082 5.99992L15.6928 10.0227L8.37727 5.99992L15.6928 1.9771ZM24.0006 17.4545L16.6158 21.5161V11.6215L24.0006 7.55994V17.4545Z" fill="white"/>
<path d="M7.38471 12H0V10.1538H7.38471V12ZM9.23089 19.3847H1.84618V17.5385H9.23089V19.3847ZM11.0771 15.6923H3.69236V13.8461H11.0771V15.6923Z" fill="white"/>
</svg>
