<svg width="24" height="24" viewBox="0 0 24 24" fill="none" xmlns="http://www.w3.org/2000/svg">
<path fill-rule="evenodd" clip-rule="evenodd" d="M21.4559 5.41534C21.5509 5.55955 21.5932 5.73212 21.5757 5.90393C21.5582 6.07573 21.482 6.23624 21.3599 6.35834L12.1669 15.5503C12.0728 15.6443 11.9555 15.7116 11.8269 15.7453L7.99787 16.7453C7.8713 16.7784 7.7383 16.7777 7.61206 16.7434C7.48583 16.7091 7.37076 16.6424 7.27826 16.5499C7.18577 16.4575 7.11908 16.3424 7.0848 16.2161C7.05053 16.0899 7.04986 15.9569 7.08287 15.8303L8.08287 12.0023C8.11277 11.8877 8.16776 11.7811 8.24387 11.6903L17.4709 2.46934C17.6115 2.32889 17.8021 2.25 18.0009 2.25C18.1996 2.25 18.3902 2.32889 18.5309 2.46934L21.3599 5.29734C21.3948 5.33418 21.4269 5.37363 21.4559 5.41534ZM19.7689 5.82734L18.0009 4.06034L9.48287 12.5783L8.85787 14.9713L11.2509 14.3463L19.7689 5.82734Z" fill="#D4AF37"/>
<path d="M19.641 17.1562C19.9143 14.8201 20.0016 12.466 19.902 10.1162C19.8997 10.0608 19.9088 10.0055 19.929 9.95388C19.9491 9.90223 19.9798 9.85534 20.019 9.81617L21.003 8.83217C21.0299 8.80513 21.064 8.78643 21.1013 8.77832C21.1385 8.7702 21.1774 8.77302 21.2131 8.78643C21.2488 8.79985 21.2798 8.82328 21.3025 8.85393C21.3252 8.88457 21.3386 8.92111 21.341 8.95917C21.5257 11.7504 21.4554 14.5527 21.131 17.3312C20.895 19.3532 19.271 20.9382 17.258 21.1632C13.7633 21.5499 10.2367 21.5499 6.74201 21.1632C4.73001 20.9382 3.10501 19.3532 2.86901 17.3312C2.45512 13.7865 2.45512 10.2058 2.86901 6.66117C3.10501 4.63917 4.72901 3.05417 6.74201 2.82917C9.39446 2.53622 12.0667 2.46497 14.731 2.61617C14.7691 2.61891 14.8057 2.63252 14.8363 2.65538C14.867 2.67825 14.8904 2.70942 14.9039 2.74519C14.9173 2.78097 14.9203 2.81985 14.9123 2.85725C14.9044 2.89464 14.8859 2.92897 14.859 2.95617L13.866 3.94817C13.8272 3.98702 13.7808 4.01745 13.7297 4.03758C13.6786 4.05771 13.6239 4.0671 13.569 4.06517C11.3458 3.98902 9.11993 4.07424 6.90901 4.32017C6.26295 4.39168 5.65986 4.67889 5.19717 5.13542C4.73447 5.59195 4.43919 6.19113 4.35901 6.83617C3.95787 10.2645 3.95787 13.7279 4.35901 17.1562C4.43919 17.8012 4.73447 18.4004 5.19717 18.8569C5.65986 19.3134 6.26295 19.6007 6.90901 19.6722C10.264 20.0472 13.736 20.0472 17.092 19.6722C17.7381 19.6007 18.3412 19.3134 18.8039 18.8569C19.2666 18.4004 19.5608 17.8012 19.641 17.1562Z" fill="#D4AF37"/>
</svg>
