<svg width="34" height="34" viewBox="0 0 34 34" fill="none" xmlns="http://www.w3.org/2000/svg">
<path d="M29.75 17C29.75 24.0416 24.0416 29.75 17 29.75M29.75 17C29.75 9.95837 24.0416 4.25 17 4.25M29.75 17H4.25M17 29.75C9.95837 29.75 4.25 24.0416 4.25 17M17 29.75C19.3472 29.75 21.25 24.0416 21.25 17C21.25 9.95837 19.3472 4.25 17 4.25M17 29.75C14.6528 29.75 12.75 24.0416 12.75 17C12.75 9.95837 14.6528 4.25 17 4.25M4.25 17C4.25 9.95837 9.95837 4.25 17 4.25" stroke="white" stroke-width="2" stroke-linecap="round" stroke-linejoin="round"/>
</svg>
