<svg width="22" height="30" viewBox="0 0 22 30" fill="none" xmlns="http://www.w3.org/2000/svg">
<path d="M10.9386 1.0211L10.9386 1.02107C10.9561 1.00742 10.9778 1 11 1C11.0222 1 11.0438 1.0074 11.0614 1.02102C11.0614 1.02104 11.0614 1.02106 11.0614 1.02107L20.11 8.06078L20.1107 8.06135C20.3876 8.27638 20.6117 8.55188 20.7658 8.86678C20.92 9.18168 21.0001 9.52765 21 9.87825V9.87842V19.8001C21 20.1183 20.8736 20.4235 20.6485 20.6485C20.4235 20.8736 20.1183 21 19.8 21H15.4C15.0817 21 14.7765 20.8736 14.5515 20.6485C14.3264 20.4235 14.2 20.1183 14.2 19.8001V13.2003V12.2003H13.2H8.8H7.8V13.2003V19.8001C7.8 20.1183 7.67358 20.4235 7.44854 20.6485L8.07707 21.2771L7.44854 20.6485C7.2235 20.8736 6.91827 21 6.6 21H2.2C1.88173 21 1.5765 20.8736 1.35146 20.6485L0.644366 21.3557L1.35146 20.6485C1.12642 20.4235 1 20.1183 1 19.8001L1 9.87842L1 9.87773C0.999757 9.52726 1.07962 9.18137 1.23348 8.86648C1.38734 8.5516 1.61113 8.27604 1.88775 8.06085C1.88777 8.06084 1.88778 8.06084 1.88779 8.06083L10.9386 1.0211Z" fill="#D4AF37" stroke="#D4AF37" stroke-width="2"/>
<circle cx="11" cy="27" r="3" fill="#D4AF37"/>
</svg>
