<svg width="16" height="16" viewBox="0 0 16 16" fill="none" xmlns="http://www.w3.org/2000/svg">
<path d="M11.7712 11.1046C11.2494 11.6263 10.2519 12.6239 9.41377 13.462C8.63273 14.243 7.36723 14.2431 6.58618 13.462C5.76379 12.6396 4.78304 11.6589 4.22872 11.1046C2.14593 9.02177 2.14593 5.64489 4.22872 3.5621C6.31152 1.4793 9.6884 1.4793 11.7712 3.5621C13.854 5.64489 13.854 9.02177 11.7712 11.1046Z" stroke="white" stroke-linecap="round" stroke-linejoin="round"/>
<path d="M9.99996 7.33333C9.99996 8.4379 9.10453 9.33333 7.99996 9.33333C6.89539 9.33333 5.99996 8.4379 5.99996 7.33333C5.99996 6.22876 6.89539 5.33333 7.99996 5.33333C9.10453 5.33333 9.99996 6.22876 9.99996 7.33333Z" stroke="white" stroke-linecap="round" stroke-linejoin="round"/>
</svg>
