<svg width="18" height="15" viewBox="0 0 18 15" fill="none" xmlns="http://www.w3.org/2000/svg">
<path d="M16.141 1H2.029C1.75609 1 1.49436 1.123 1.30139 1.34193C1.10841 1.56086 1 1.8578 1 2.16742V12.8326C1 13.1422 1.10841 13.4391 1.30139 13.6581C1.49436 13.877 1.75609 14 2.029 14H16.141C16.4139 14 16.6756 13.877 16.8686 13.6581C17.0616 13.4391 17.17 13.1422 17.17 12.8326V2.16742C17.17 1.8578 17.0616 1.56086 16.8686 1.34193C16.6756 1.123 16.4139 1 16.141 1ZM2.029 2.00064H16.141C16.18 2.00064 16.2174 2.01821 16.2449 2.04949C16.2725 2.08076 16.288 2.12318 16.288 2.16742V4.41052H1.882V2.16742C1.882 2.12318 1.89749 2.08076 1.92506 2.04949C1.95262 2.01821 1.99001 2.00064 2.029 2.00064ZM16.141 13.0077H2.029C1.99001 13.0077 1.95262 12.9901 1.92506 12.9589C1.89749 12.9276 1.882 12.8852 1.882 12.8409V5.41116H16.288V12.8409C16.288 12.8852 16.2725 12.9276 16.2449 12.9589C16.2174 12.9901 16.18 13.0077 16.141 13.0077ZM14.818 10.8396C14.818 10.9723 14.7715 11.0996 14.6888 11.1934C14.6061 11.2873 14.494 11.34 14.377 11.34H12.025C11.908 11.34 11.7959 11.2873 11.7132 11.1934C11.6305 11.0996 11.584 10.9723 11.584 10.8396C11.584 10.7069 11.6305 10.5797 11.7132 10.4859C11.7959 10.392 11.908 10.3393 12.025 10.3393H14.377C14.494 10.3393 14.6061 10.392 14.6888 10.4859C14.7715 10.5797 14.818 10.7069 14.818 10.8396ZM10.114 10.8396C10.114 10.9723 10.0675 11.0996 9.98483 11.1934C9.90213 11.2873 9.78996 11.34 9.673 11.34H8.497C8.38004 11.34 8.26787 11.2873 8.18517 11.1934C8.10246 11.0996 8.056 10.9723 8.056 10.8396C8.056 10.7069 8.10246 10.5797 8.18517 10.4859C8.26787 10.392 8.38004 10.3393 8.497 10.3393H9.673C9.78996 10.3393 9.90213 10.392 9.98483 10.4859C10.0675 10.5797 10.114 10.7069 10.114 10.8396Z" fill="#D4AF37" stroke="#D4AF37" stroke-width="0.5"/>
</svg>
