<svg width="22" height="22" viewBox="0 0 22 22" fill="none" xmlns="http://www.w3.org/2000/svg">
<path d="M11.7558 12.1244L11.3462 12.1996V12.6162V12.6923C11.3462 12.7841 11.3097 12.8722 11.2448 12.9371C11.1799 13.002 11.0918 13.0385 11 13.0385C10.9082 13.0385 10.8202 13.002 10.7552 12.9371C10.6903 12.8722 10.6538 12.7841 10.6538 12.6923V11.8462C10.6538 11.7543 10.6903 11.6663 10.7552 11.6014C10.8202 11.5365 10.9082 11.5 11 11.5C12.5867 11.5 14.0385 10.4053 14.0385 8.88461C14.0385 7.36389 12.5867 6.26923 11 6.26923C9.41333 6.26923 7.96154 7.36389 7.96154 8.88461V9.30769C7.96154 9.3995 7.92507 9.48754 7.86016 9.55246C7.79524 9.61737 7.70719 9.65384 7.61539 9.65384C7.52358 9.65384 7.43554 9.61737 7.37062 9.55246C7.3057 9.48754 7.26923 9.3995 7.26923 9.30769V8.88461C7.26923 7.10945 8.89206 5.57692 11 5.57692C13.1079 5.57692 14.7308 7.10945 14.7308 8.88461C14.7308 10.4409 13.4901 11.8059 11.7558 12.1244ZM11.2944 17.2107L11.4857 17.6726L11.2944 17.2107C11.1538 17.2689 10.9991 17.2841 10.8499 17.2544C10.7007 17.2248 10.5637 17.1515 10.4561 17.0439C10.3485 16.9363 10.2752 16.7993 10.2456 16.6501C10.2159 16.5008 10.2311 16.3462 10.2893 16.2056C10.3475 16.0651 10.4461 15.9449 10.5726 15.8604C10.6991 15.7759 10.8479 15.7308 11 15.7308C11.204 15.7308 11.3997 15.8118 11.5439 15.9561C11.6882 16.1003 11.7692 16.296 11.7692 16.5C11.7692 16.6521 11.7241 16.8009 11.6396 16.9274C11.5551 17.0539 11.4349 17.1525 11.2944 17.2107ZM20.8077 11.0006V11C20.8077 9.06022 20.2325 7.164 19.1548 5.55114C18.0771 3.93827 16.5454 2.68119 14.7532 1.93887C12.9611 1.19655 10.9891 1.00233 9.08662 1.38076C7.18411 1.75919 5.43655 2.69328 4.06492 4.06491C2.69329 5.43654 1.7592 7.18411 1.38076 9.08661C1.00233 10.9891 1.19656 12.9611 1.93888 14.7532C2.6812 16.5454 3.93828 18.0771 5.55114 19.1548C7.16401 20.2325 9.06022 20.8077 11 20.8077H11.0006C13.6007 20.8047 16.0934 19.7705 17.932 17.932C19.7705 16.0934 20.8047 13.6007 20.8077 11.0006ZM21.5 11.0005C21.4999 13.077 20.8841 15.1069 19.7304 16.8335C18.5767 18.5602 16.9368 19.906 15.0182 20.7007C13.0996 21.4954 10.9884 21.7034 8.95155 21.2982C6.91475 20.8931 5.04383 19.8931 3.57538 18.4246C2.10693 16.9562 1.1069 15.0852 0.70176 13.0484C0.296615 11.0116 0.50455 8.90045 1.29927 6.98182C2.09399 5.0632 3.4398 3.42332 5.16652 2.26957C6.89316 1.11586 8.92312 0.500054 10.9997 0.5C13.7836 0.503006 16.4527 1.61025 18.4212 3.57878C20.3898 5.54737 21.4971 8.21652 21.5 11.0005Z" fill="#ED6A26" stroke="#D4AF37"/>
</svg>
