<svg width="21" height="22" viewBox="0 0 21 22" fill="none" xmlns="http://www.w3.org/2000/svg">
<path d="M17.1813 16.4099C17.0138 16.6151 16.8356 16.8131 16.6486 17.0021C15.8308 17.8393 14.8616 18.5072 13.7943 18.9683C12.6877 19.4465 11.498 19.692 10.2961 19.6898M17.1813 16.4099L0.500507 10.6277C0.445751 5.03733 4.82817 0.513983 10.2719 0.500035L10.272 0.500035C13.5404 0.491264 16.4434 2.12193 18.2301 4.64014H17.1806C17.0137 4.43978 16.838 4.24171 16.6496 4.04901L16.6491 4.04847C15.825 3.20792 14.8648 2.54383 13.7945 2.08183C12.6877 1.60144 11.51 1.36027 10.297 1.36027C9.08302 1.36027 7.90556 1.60423 6.79987 2.08165C5.72933 2.54365 4.76901 3.2078 3.94484 4.04847C3.11999 4.88982 2.47192 5.87151 2.02163 6.96117L2.02151 6.96148C1.55622 8.08952 1.31868 9.2876 1.31868 10.525C1.31868 11.7617 1.55355 12.9601 2.02178 14.0892C2.47241 15.1774 3.12531 16.1665 3.94483 17.0016M17.1813 16.4099H18.2297C16.4461 18.9216 13.5562 20.55 10.297 20.55C4.93101 20.55 0.555338 16.1284 0.500508 10.6278L17.1813 16.4099ZM10.2961 19.6898L10.297 19.1898V19.6898C10.2967 19.6898 10.2964 19.6898 10.2961 19.6898ZM10.2961 19.6898C9.0824 19.6896 7.90523 19.4457 6.79978 18.9684L6.79971 18.9683C5.73216 18.5072 4.76278 17.8391 3.94483 17.0016M3.94483 17.0016C3.9449 17.0016 3.94496 17.0017 3.94503 17.0018L4.30185 16.6516L3.94413 17.0008C3.94436 17.0011 3.9446 17.0013 3.94483 17.0016ZM20.8088 10.5231L20.9848 10.4393L20.8088 10.5231ZM20.8088 10.5231L20.8088 10.5231L20.8088 10.5231ZM17.225 10.1439H17.725V9.64386V8.42473L20.3258 10.525L17.725 12.6253V11.4062V10.9062H17.225H10.0219V10.1439H17.225Z" fill="#ED6A26" stroke="#D4AF37"/>
</svg>
