<svg width="23" height="23" viewBox="0 0 23 23" fill="none" xmlns="http://www.w3.org/2000/svg">
<path d="M13.417 2.875V6.70833C13.417 6.9625 13.518 7.20625 13.6977 7.38598C13.8774 7.5657 14.1212 7.66667 14.3753 7.66667H18.2087" stroke="#D4AF37" stroke-width="2" stroke-linecap="round" stroke-linejoin="round"/>
<path d="M18.2082 11.5V18.2083C18.2535 18.57 18.1818 18.9367 18.0036 19.2546C17.8253 19.5725 17.5499 19.825 17.2177 19.9751C16.8855 20.1251 16.514 20.1647 16.1576 20.0883C15.8013 20.0118 15.4788 19.8231 15.2374 19.55C15.0895 19.3608 14.9004 19.2077 14.6846 19.1025C14.4687 18.9972 14.2317 18.9425 13.9916 18.9425C13.7514 18.9425 13.5144 18.9972 13.2985 19.1025C13.0827 19.2077 12.8936 19.3608 12.7457 19.55C12.5978 19.7392 12.4088 19.8923 12.1929 19.9975C11.977 20.1028 11.74 20.1575 11.4999 20.1575C11.2597 20.1575 11.0227 20.1028 10.8069 19.9975C10.591 19.8923 10.402 19.7392 10.2541 19.55C10.1062 19.3608 9.91711 19.2077 9.70125 19.1025C9.48538 18.9972 9.24838 18.9425 9.00822 18.9425C8.76807 18.9425 8.53106 18.9972 8.3152 19.1025C8.09934 19.2077 7.91029 19.3608 7.76239 19.55C7.52102 19.8231 7.19852 20.0118 6.84214 20.0883C6.48576 20.1647 6.11425 20.1251 5.78206 19.9751C5.44987 19.825 5.17446 19.5725 4.99622 19.2546C4.81797 18.9367 4.74624 18.57 4.79156 18.2083V4.79167C4.79156 4.28334 4.99349 3.79582 5.35293 3.43638C5.71238 3.07693 6.19989 2.875 6.70822 2.875H13.4166L18.2082 7.66667V11.7396" stroke="#D4AF37" stroke-width="2" stroke-linecap="round" stroke-linejoin="round"/>
</svg>
