<svg width="16" height="17" viewBox="0 0 16 17" fill="none" xmlns="http://www.w3.org/2000/svg">
<g clip-path="url(#clip0_27114_418)">
<path d="M7.04895 2.97742C7.34833 2.05616 8.65167 2.05616 8.95104 2.97742L9.57175 4.88751C9.70563 5.2995 10.0896 5.57844 10.5228 5.57845L12.5312 5.57853C13.4998 5.57857 13.9026 6.81812 13.1189 7.38752L11.4942 8.5681C11.1437 8.82274 10.997 9.27407 11.1309 9.68607L11.7515 11.5962C12.0508 12.5175 10.9963 13.2836 10.2126 12.7142L8.58775 11.5338C8.23728 11.2792 7.76272 11.2792 7.41225 11.5338L5.78736 12.7142C5.00366 13.2836 3.94924 12.5175 4.24854 11.5962L4.8691 9.68607C5.00295 9.27407 4.8563 8.82274 4.50585 8.5681L2.88106 7.38752C2.0974 6.81812 2.50015 5.57857 3.46884 5.57853L5.47724 5.57845C5.91044 5.57844 6.29437 5.2995 6.42825 4.88751L7.04895 2.97742Z" stroke="white"/>
</g>
<defs>
<clipPath id="clip0_27114_418">
<rect width="16" height="16" fill="white" transform="translate(0 0.0507812)"/>
</clipPath>
</defs>
</svg>
