<svg width="16" height="17" viewBox="0 0 16 17" fill="none" xmlns="http://www.w3.org/2000/svg">
<path d="M11.3334 13.3854H14.6667V12.0521C14.6667 10.9475 13.7713 10.0521 12.6667 10.0521C12.0296 10.0521 11.4621 10.3499 11.0959 10.814M11.3334 13.3854H4.66671M11.3334 13.3854V12.0521C11.3334 11.6146 11.2491 11.1968 11.0959 10.814M4.66671 13.3854H1.33337V12.0521C1.33337 10.9475 2.2288 10.0521 3.33337 10.0521C3.97045 10.0521 4.53795 10.3499 4.9042 10.814M4.66671 13.3854V12.0521C4.66671 11.6146 4.75099 11.1968 4.9042 10.814M4.9042 10.814C5.39571 9.5861 6.59658 8.71875 8.00004 8.71875C9.4035 8.71875 10.6044 9.5861 11.0959 10.814M10 4.71875C10 5.82332 9.10461 6.71875 8.00004 6.71875C6.89547 6.71875 6.00004 5.82332 6.00004 4.71875C6.00004 3.61418 6.89547 2.71875 8.00004 2.71875C9.10461 2.71875 10 3.61418 10 4.71875ZM14 6.71875C14 7.45513 13.4031 8.05208 12.6667 8.05208C11.9303 8.05208 11.3334 7.45513 11.3334 6.71875C11.3334 5.98237 11.9303 5.38542 12.6667 5.38542C13.4031 5.38542 14 5.98237 14 6.71875ZM4.66671 6.71875C4.66671 7.45513 4.06975 8.05208 3.33337 8.05208C2.59699 8.05208 2.00004 7.45513 2.00004 6.71875C2.00004 5.98237 2.59699 5.38542 3.33337 5.38542C4.06975 5.38542 4.66671 5.98237 4.66671 6.71875Z" stroke="white" stroke-linecap="round" stroke-linejoin="round"/>
</svg>
