<svg width="18" height="15" viewBox="0 0 18 15" fill="none" xmlns="http://www.w3.org/2000/svg">
<path d="M16.141 1.10352H2.029C1.75609 1.10352 1.49436 1.22651 1.30139 1.44544C1.10841 1.66438 1 1.96131 1 2.27093V12.9361C1 13.2457 1.10841 13.5427 1.30139 13.7616C1.49436 13.9805 1.75609 14.1035 2.029 14.1035H16.141C16.4139 14.1035 16.6756 13.9805 16.8686 13.7616C17.0616 13.5427 17.17 13.2457 17.17 12.9361V2.27093C17.17 1.96131 17.0616 1.66438 16.8686 1.44544C16.6756 1.22651 16.4139 1.10352 16.141 1.10352ZM2.029 2.10416H16.141C16.18 2.10416 16.2174 2.12173 16.2449 2.153C16.2725 2.18428 16.288 2.2267 16.288 2.27093V4.51404H1.882V2.27093C1.882 2.2267 1.89749 2.18428 1.92506 2.153C1.95262 2.12173 1.99001 2.10416 2.029 2.10416ZM16.141 13.1112H2.029C1.99001 13.1112 1.95262 13.0936 1.92506 13.0624C1.89749 13.0311 1.882 12.9887 1.882 12.9444V5.51468H16.288V12.9444C16.288 12.9887 16.2725 13.0311 16.2449 13.0624C16.2174 13.0936 16.18 13.1112 16.141 13.1112ZM14.818 10.9432C14.818 11.0759 14.7715 11.2031 14.6888 11.2969C14.6061 11.3908 14.494 11.4435 14.377 11.4435H12.025C11.908 11.4435 11.7959 11.3908 11.7132 11.2969C11.6305 11.2031 11.584 11.0759 11.584 10.9432C11.584 10.8105 11.6305 10.6832 11.7132 10.5894C11.7959 10.4955 11.908 10.4428 12.025 10.4428H14.377C14.494 10.4428 14.6061 10.4955 14.6888 10.5894C14.7715 10.6832 14.818 10.8105 14.818 10.9432ZM10.114 10.9432C10.114 11.0759 10.0675 11.2031 9.98483 11.2969C9.90213 11.3908 9.78996 11.4435 9.673 11.4435H8.497C8.38004 11.4435 8.26787 11.3908 8.18517 11.2969C8.10246 11.2031 8.056 11.0759 8.056 10.9432C8.056 10.8105 8.10246 10.6832 8.18517 10.5894C8.26787 10.4955 8.38004 10.4428 8.497 10.4428H9.673C9.78996 10.4428 9.90213 10.4955 9.98483 10.5894C10.0675 10.6832 10.114 10.8105 10.114 10.9432Z" fill="#D4AF37" stroke="#D4AF37" stroke-width="0.5"/>
</svg>
